<svg aria-hidden="true" style="position: absolute; width: 0; height: 0; overflow: hidden;" version="1.1" xmlns="http://www.w3.org/2000/svg" xmlns:xlink="http://www.w3.org/1999/xlink">
<defs>
<symbol id="Route" viewBox="0 0 32 32">
<path d="M6.667 4c-1.473 0-2.667 1.194-2.667 2.667s1.194 2.667 2.667 2.667c1.473 0 2.667-1.194 2.667-2.667s-1.194-2.667-2.667-2.667zM1.333 6.667c0-2.946 2.388-5.333 5.333-5.333s5.333 2.388 5.333 5.333c0 2.946-2.388 5.333-5.333 5.333s-5.333-2.388-5.333-5.333z"></path>
<path d="M25.333 22.667c-1.473 0-2.667 1.194-2.667 2.667s1.194 2.667 2.667 2.667c1.473 0 2.667-1.194 2.667-2.667s-1.194-2.667-2.667-2.667zM20 25.333c0-2.945 2.388-5.333 5.333-5.333s5.333 2.388 5.333 5.333c0 2.946-2.388 5.333-5.333 5.333s-5.333-2.388-5.333-5.333z"></path>
<path d="M13.333 6.667c0-0.736 0.597-1.333 1.333-1.333h8.4c4.13 0 5.62 5.404 1.987 7.429l-15.473 8.804c-1.16 0.644-0.782 2.434 0.686 2.434h7.067c0.736 0 1.333 0.597 1.333 1.333s-0.597 1.333-1.333 1.333h-7.067c-4.13 0-5.619-5.404-1.987-7.429l15.473-8.804c1.16-0.644 0.782-2.434-0.686-2.434h-8.4c-0.736 0-1.333-0.597-1.333-1.333z"></path>
</symbol>
<symbol id="RatingYellow" viewBox="0 0 32 32">
<path fill="#ffc531" style="fill: var(--color1, #ffc531); stroke: var(--color1, #ffc531)" stroke="#ffc531" stroke-linejoin="miter" stroke-linecap="butt" stroke-miterlimit="4" stroke-width="2.4" d="M12.4 10.394l3.6-6.822 3.6 6.822c0.318 0.603 0.899 1.025 1.571 1.141l7.601 1.315-5.376 5.532c-0.475 0.489-0.697 1.171-0.6 1.846l1.098 7.635-6.922-3.404c-0.612-0.301-1.329-0.301-1.941 0l-6.922 3.404 1.098-7.635c0.097-0.675-0.125-1.357-0.6-1.846l-5.376-5.532 7.601-1.315c0.672-0.116 1.252-0.538 1.571-1.141zM29.035 12.579v0zM7.767 28.031c0 0 0 0 0 0h-0z"></path>
</symbol>
<symbol id="RatingGray" viewBox="0 0 32 32">
<path fill="#f2f4f7" style="fill: var(--color2, #f2f4f7); stroke: var(--color2, #f2f4f7)" stroke="#f2f4f7" stroke-linejoin="miter" stroke-linecap="butt" stroke-miterlimit="4" stroke-width="2.4" d="M12.4 10.394l3.6-6.822 3.6 6.822c0.318 0.603 0.899 1.025 1.571 1.141l7.601 1.315-5.376 5.532c-0.475 0.489-0.697 1.171-0.6 1.846l1.098 7.635-6.922-3.404c-0.612-0.301-1.329-0.301-1.941 0l-6.922 3.404 1.098-7.635c0.097-0.675-0.125-1.357-0.6-1.846l-5.376-5.532 7.601-1.315c0.672-0.116 1.252-0.538 1.571-1.141zM29.035 12.579v0zM7.767 28.031c0 0 0 0 0 0h-0z"></path>
</symbol>
<symbol id="HeartRed" viewBox="0 0 32 32">
<path fill="#e44848" style="fill: var(--color3, #e44848); stroke: var(--color3, #e44848)" stroke="#e44848" stroke-linejoin="round" stroke-linecap="round" stroke-miterlimit="4" stroke-width="3.0667" d="M27.787 6.147c-0.681-0.681-1.49-1.222-2.379-1.591s-1.844-0.559-2.807-0.559-1.917 0.19-2.807 0.559c-0.89 0.369-1.699 0.909-2.38 1.591l-1.413 1.413-1.413-1.413c-1.376-1.376-3.241-2.148-5.187-2.148s-3.811 0.773-5.187 2.148c-1.376 1.376-2.148 3.241-2.148 5.187s0.773 3.811 2.148 5.187l11.787 11.787 11.787-11.787c0.681-0.681 1.222-1.49 1.591-2.38s0.559-1.844 0.559-2.807-0.19-1.917-0.559-2.807c-0.369-0.89-0.909-1.699-1.591-2.38z"></path>
</symbol>
<symbol id="HeartDefault" viewBox="0 0 32 32">
<path d="M22.599 2.464c-1.165 0-2.317 0.231-3.393 0.677s-2.054 1.098-2.878 1.922l-0.328 0.328-0.328-0.328c-1.663-1.663-3.919-2.596-6.271-2.596s-4.608 0.934-6.271 2.596c-1.663 1.663-2.599 3.919-2.599 6.271s0.936 4.608 2.599 6.271l1.411 1.414 10.375 10.372c0.277 0.277 0.66 0.448 1.083 0.448s0.806-0.171 1.083-0.448l11.786-11.786c0.824-0.823 1.479-1.801 1.924-2.878s0.674-2.229 0.674-3.393-0.229-2.317-0.674-3.393c-0.446-1.076-1.101-2.054-1.924-2.878s-1.8-1.476-2.875-1.922c-1.076-0.446-2.231-0.677-3.396-0.677zM9.401 5.531c1.539 0 3.013 0.612 4.102 1.701l1.414 1.411c0.277 0.277 0.66 0.448 1.083 0.448s0.806-0.171 1.083-0.448l1.414-1.411c0.539-0.539 1.179-0.966 1.883-1.258 0-0 0-0.001 0-0.001s0-0.001 0-0.001v0c0.704-0.292 1.457-0.44 2.219-0.44s1.517 0.151 2.221 0.443v-0.003c0.704 0.292 1.344 0.722 1.883 1.26s0.966 1.176 1.258 1.88c0.292 0.704 0.443 1.459 0.443 2.221s-0.151 1.515-0.443 2.219c0 0 0 0.001 0 0.001s0 0.001 0 0.001v-0c-0.292 0.704-0.719 1.341-1.258 1.88l-10.703 10.703-10.703-10.703c-1.088-1.088-1.698-2.562-1.698-4.102s0.609-3.013 1.698-4.102c1.088-1.088 2.565-1.701 4.104-1.701z"></path>
</symbol>
<symbol id="Fate" viewBox="0 0 32 32">
<path stroke-linejoin="round" stroke-linecap="round" stroke-miterlimit="4" stroke-width="2.4" d="M25.333 5.333h-18.667c-1.473 0-2.667 1.194-2.667 2.667v18.667c0 1.473 1.194 2.667 2.667 2.667h18.667c1.473 0 2.667-1.194 2.667-2.667v-18.667c0-1.473-1.194-2.667-2.667-2.667z"></path>
<path stroke-linejoin="round" stroke-linecap="round" stroke-miterlimit="4" stroke-width="2.4" d="M21.333 2.667v5.333"></path>
<path stroke-linejoin="round" stroke-linecap="round" stroke-miterlimit="4" stroke-width="2.4" d="M10.667 2.667v5.333"></path>
<path stroke-linejoin="round" stroke-linecap="round" stroke-miterlimit="4" stroke-width="2.4" d="M4 13.333h24"></path>
</symbol>
<symbol id="alcove" viewBox="0 0 32 32">
<path d="M1.826 6.060h8.686c0.073 0 0.142-0.028 0.194-0.079l0.834-0.814c0.243-0.237 0.565-0.367 0.908-0.367h13.172c0.613 0 1.183 0.297 1.523 0.795l1.579 2.31c0.224 0.328 0.244 0.747 0.054 1.095s-0.56 0.563-0.964 0.563h-6.789v0.669h3.477c0.922 0 1.751 0.534 2.112 1.361l2.036 4.655 1.783 0.696c0.952 0.372 1.568 1.258 1.568 2.259v4.311c0 0.643-0.536 1.166-1.195 1.166h-2.075c-0.241 1.427-1.515 2.52-3.045 2.52s-2.804-1.092-3.045-2.52h-11.342c-0.241 1.427-1.515 2.52-3.045 2.52s-2.804-1.092-3.045-2.52h-4.145c-0.586 0-1.063-0.465-1.063-1.037v-15.803c0-0.982 0.819-1.781 1.826-1.781zM25.685 26.216c1.146 0 2.078-0.909 2.078-2.027s-0.932-2.027-2.078-2.027c-1.146 0-2.078 0.909-2.078 2.027s0.932 2.027 2.078 2.027zM21.024 23.696h1.615c0.004-0.025 0.009-0.049 0.014-0.073 0.003-0.017 0.006-0.033 0.010-0.050 0.008-0.039 0.017-0.077 0.027-0.115 0.002-0.008 0.004-0.016 0.006-0.024 0.012-0.046 0.025-0.091 0.040-0.136 0.004-0.013 0.009-0.026 0.013-0.039 0.010-0.032 0.021-0.063 0.033-0.094 0.006-0.017 0.013-0.033 0.020-0.050 0.010-0.027 0.021-0.054 0.033-0.081 0.007-0.018 0.015-0.035 0.023-0.052 0.011-0.026 0.023-0.050 0.035-0.076 0.009-0.018 0.017-0.035 0.027-0.053 0.012-0.024 0.025-0.048 0.038-0.072 0.009-0.017 0.019-0.035 0.029-0.052 0.013-0.024 0.027-0.047 0.042-0.070 0.010-0.017 0.020-0.033 0.030-0.050 0.015-0.024 0.031-0.047 0.046-0.070 0.010-0.015 0.021-0.031 0.031-0.046 0.017-0.025 0.036-0.049 0.054-0.074 0.009-0.013 0.019-0.026 0.028-0.039 0.025-0.032 0.050-0.063 0.076-0.094 0.004-0.005 0.007-0.009 0.011-0.014 0.030-0.035 0.061-0.070 0.092-0.104 0.010-0.011 0.020-0.020 0.030-0.031 0.022-0.023 0.044-0.046 0.067-0.069 0.013-0.013 0.026-0.025 0.039-0.037 0.021-0.020 0.042-0.039 0.063-0.059 0.014-0.013 0.029-0.025 0.043-0.038 0.021-0.018 0.042-0.036 0.063-0.054l0.046-0.037c0.021-0.017 0.043-0.034 0.065-0.050 0.016-0.012 0.032-0.024 0.048-0.035 0.022-0.016 0.045-0.032 0.068-0.047 0.016-0.011 0.032-0.022 0.048-0.032 0.024-0.016 0.048-0.031 0.073-0.046 0.016-0.009 0.031-0.019 0.048-0.029 0.027-0.016 0.054-0.031 0.082-0.046 0.014-0.008 0.028-0.016 0.042-0.023 0.039-0.020 0.078-0.040 0.118-0.059 0.003-0.001 0.006-0.003 0.009-0.004 0.043-0.020 0.086-0.039 0.13-0.057 0.014-0.006 0.029-0.011 0.043-0.017 0.030-0.012 0.060-0.024 0.091-0.035 0.017-0.006 0.035-0.012 0.052-0.018 0.028-0.009 0.056-0.019 0.084-0.028 0.019-0.006 0.038-0.011 0.057-0.017 0.027-0.008 0.055-0.016 0.082-0.023 0.020-0.005 0.040-0.010 0.060-0.015 0.027-0.007 0.055-0.013 0.083-0.018 0.020-0.004 0.040-0.009 0.061-0.013 0.028-0.005 0.057-0.010 0.085-0.015 0.020-0.004 0.040-0.007 0.060-0.009 0.029-0.004 0.059-0.008 0.090-0.011 0.019-0.002 0.038-0.005 0.058-0.006 0.033-0.003 0.067-0.006 0.1-0.007 0.017-0.001 0.033-0.003 0.049-0.003 0.050-0.003 0.1-0.004 0.151-0.004s0.101 0.001 0.151 0.004c0.017 0 0.033 0.002 0.049 0.003 0.034 0.002 0.067 0.004 0.1 0.007 0.019 0.002 0.039 0.004 0.058 0.006 0.030 0.004 0.060 0.007 0.090 0.011 0.021 0.003 0.040 0.006 0.061 0.009 0.029 0.004 0.057 0.009 0.085 0.015 0.021 0.004 0.041 0.008 0.061 0.013 0.028 0.006 0.055 0.012 0.083 0.018 0.020 0.005 0.040 0.010 0.060 0.015 0.027 0.007 0.055 0.015 0.082 0.023 0.019 0.006 0.038 0.011 0.057 0.017 0.028 0.009 0.056 0.018 0.084 0.028 0.017 0.006 0.035 0.012 0.052 0.018 0.031 0.011 0.061 0.023 0.091 0.035 0.014 0.006 0.029 0.011 0.043 0.017 0.044 0.018 0.087 0.037 0.13 0.057 0.003 0.002 0.006 0.003 0.009 0.004 0.040 0.019 0.079 0.039 0.118 0.059 0.014 0.007 0.027 0.015 0.042 0.023 0.027 0.015 0.055 0.030 0.082 0.046 0.016 0.009 0.032 0.019 0.048 0.029 0.024 0.015 0.049 0.030 0.073 0.046 0.016 0.011 0.032 0.022 0.048 0.032 0.023 0.016 0.046 0.031 0.068 0.047 0.016 0.011 0.032 0.023 0.048 0.035 0.022 0.016 0.044 0.033 0.065 0.050l0.046 0.037c0.021 0.018 0.042 0.035 0.063 0.054 0.015 0.013 0.029 0.025 0.043 0.038 0.021 0.019 0.042 0.039 0.063 0.059 0.013 0.012 0.026 0.024 0.039 0.037 0.023 0.023 0.045 0.046 0.067 0.069 0.010 0.010 0.020 0.020 0.030 0.031 0.031 0.034 0.062 0.068 0.092 0.104 0.004 0.005 0.008 0.009 0.011 0.014 0.026 0.031 0.051 0.062 0.076 0.094 0.010 0.013 0.019 0.026 0.028 0.039 0.019 0.024 0.037 0.049 0.054 0.074 0.010 0.015 0.021 0.030 0.031 0.046 0.016 0.024 0.031 0.047 0.046 0.070 0.010 0.017 0.020 0.033 0.030 0.050 0.014 0.023 0.028 0.047 0.042 0.070 0.010 0.017 0.019 0.035 0.029 0.052 0.013 0.024 0.026 0.048 0.038 0.072 0.009 0.018 0.018 0.035 0.027 0.053 0.012 0.025 0.023 0.050 0.035 0.076 0.008 0.017 0.016 0.035 0.023 0.052 0.012 0.027 0.022 0.054 0.033 0.081 0.007 0.016 0.013 0.033 0.020 0.050 0.011 0.031 0.022 0.063 0.033 0.094 0.004 0.013 0.009 0.026 0.013 0.039 0.014 0.045 0.027 0.090 0.040 0.136 0.002 0.008 0.004 0.016 0.006 0.024 0.010 0.038 0.019 0.076 0.027 0.115 0.004 0.016 0.006 0.033 0.010 0.050 0.005 0.024 0.010 0.048 0.014 0.073h2.074c0.103 0 0.186-0.082 0.186-0.182v-2.062h-0.787v-0.984h0.787v-1.264c0-0.596-0.366-1.124-0.933-1.345l-1.888-0.737h-7.146v6.574zM21.024 16.138h6.48l-1.818-4.158c-0.203-0.464-0.668-0.763-1.185-0.763h-3.477v4.921zM8.252 26.216c1.146 0 2.078-0.909 2.078-2.027s-0.932-2.027-2.078-2.027c-0.036 0-0.071 0.001-0.107 0.003-0.955 0.047-1.742 0.727-1.929 1.616-0.007 0.033-0.013 0.067-0.019 0.1-0.011 0.067-0.017 0.135-0.021 0.204-0.002 0.035-0.003 0.069-0.003 0.104 0 1.118 0.932 2.027 2.078 2.027zM1.009 20.468h0.787v0.984h-0.787v2.192c0 0.029 0.024 0.052 0.054 0.052h4.144c0.004-0.024 0.009-0.048 0.014-0.072 0.003-0.017 0.006-0.034 0.010-0.051 0.008-0.038 0.017-0.075 0.027-0.112 0.002-0.009 0.004-0.018 0.006-0.026 0.012-0.046 0.025-0.090 0.040-0.135 0.004-0.014 0.009-0.028 0.014-0.041 0.011-0.031 0.021-0.062 0.032-0.093 0.006-0.017 0.013-0.034 0.020-0.051 0.011-0.027 0.021-0.054 0.032-0.080 0.008-0.018 0.016-0.036 0.024-0.054 0.011-0.025 0.023-0.050 0.035-0.074 0.008-0.018 0.018-0.036 0.027-0.054 0.012-0.024 0.025-0.048 0.038-0.072 0.010-0.017 0.019-0.035 0.029-0.052 0.014-0.024 0.027-0.047 0.042-0.070 0.010-0.017 0.020-0.033 0.031-0.050 0.015-0.024 0.030-0.047 0.046-0.070 0.010-0.016 0.021-0.032 0.031-0.046 0.017-0.025 0.035-0.049 0.053-0.073 0.010-0.013 0.019-0.027 0.029-0.040 0.024-0.031 0.049-0.062 0.074-0.092 0.004-0.006 0.008-0.011 0.013-0.016 0.030-0.035 0.061-0.070 0.092-0.104 0.010-0.011 0.020-0.021 0.030-0.032 0.022-0.023 0.044-0.046 0.067-0.068 0.013-0.013 0.026-0.025 0.040-0.037 0.021-0.020 0.041-0.039 0.063-0.058 0.014-0.013 0.029-0.025 0.044-0.038 0.021-0.018 0.042-0.035 0.063-0.053 0.015-0.013 0.031-0.025 0.046-0.037 0.021-0.017 0.043-0.033 0.065-0.050 0.016-0.012 0.032-0.024 0.048-0.035 0.022-0.016 0.045-0.032 0.067-0.047 0.017-0.011 0.033-0.022 0.049-0.033 0.024-0.016 0.048-0.031 0.072-0.045 0.016-0.010 0.032-0.020 0.048-0.029 0.027-0.016 0.054-0.031 0.081-0.046 0.014-0.008 0.028-0.016 0.042-0.023 0.038-0.020 0.077-0.040 0.117-0.058 0.003-0.002 0.006-0.004 0.010-0.005 0.043-0.020 0.086-0.039 0.13-0.057 0.014-0.006 0.029-0.011 0.043-0.017 0.030-0.012 0.060-0.024 0.091-0.035 0.017-0.006 0.035-0.012 0.053-0.018 0.027-0.009 0.055-0.019 0.084-0.028 0.019-0.006 0.038-0.011 0.057-0.017 0.027-0.008 0.055-0.016 0.082-0.023 0.020-0.005 0.040-0.010 0.060-0.015 0.027-0.007 0.055-0.013 0.083-0.018 0.020-0.004 0.040-0.009 0.061-0.013 0.028-0.005 0.056-0.010 0.085-0.015 0.020-0.004 0.040-0.007 0.061-0.009 0.029-0.004 0.059-0.008 0.090-0.011 0.019-0.002 0.038-0.005 0.058-0.006 0.033-0.003 0.067-0.006 0.1-0.007 0.016-0.001 0.033-0.003 0.049-0.003 0.050-0.003 0.1-0.004 0.151-0.004s0.101 0.001 0.151 0.004c0.017 0 0.033 0.002 0.049 0.003 0.033 0.002 0.067 0.004 0.1 0.007 0.019 0.002 0.039 0.004 0.058 0.006 0.030 0.004 0.060 0.007 0.090 0.011 0.021 0.003 0.040 0.006 0.060 0.009 0.029 0.004 0.057 0.009 0.085 0.015 0.021 0.004 0.041 0.008 0.061 0.013 0.028 0.006 0.055 0.012 0.083 0.018 0.020 0.005 0.040 0.010 0.060 0.015 0.027 0.007 0.055 0.015 0.082 0.023 0.019 0.006 0.038 0.011 0.057 0.017 0.028 0.009 0.056 0.018 0.084 0.028 0.018 0.006 0.036 0.012 0.053 0.018 0.031 0.011 0.061 0.023 0.091 0.035 0.014 0.006 0.029 0.011 0.043 0.017 0.044 0.018 0.087 0.037 0.13 0.057 0.004 0.002 0.007 0.003 0.010 0.005 0.040 0.019 0.078 0.038 0.117 0.058 0.014 0.007 0.028 0.015 0.042 0.023 0.027 0.015 0.054 0.030 0.081 0.046 0.016 0.009 0.032 0.019 0.048 0.029 0.024 0.015 0.048 0.030 0.072 0.045 0.016 0.011 0.032 0.022 0.049 0.033 0.023 0.015 0.045 0.031 0.067 0.047 0.016 0.011 0.032 0.023 0.048 0.035 0.022 0.016 0.044 0.033 0.065 0.050 0.016 0.012 0.031 0.025 0.046 0.037 0.021 0.017 0.042 0.035 0.063 0.053 0.015 0.013 0.029 0.025 0.044 0.038 0.021 0.019 0.042 0.039 0.063 0.059 0.013 0.012 0.026 0.024 0.039 0.037 0.023 0.022 0.045 0.046 0.067 0.069 0.010 0.010 0.020 0.020 0.030 0.031 0.031 0.034 0.062 0.068 0.092 0.104 0.004 0.005 0.008 0.010 0.012 0.015 0.025 0.031 0.051 0.062 0.075 0.094 0.010 0.013 0.019 0.026 0.029 0.039 0.018 0.024 0.036 0.049 0.054 0.074 0.010 0.015 0.021 0.031 0.031 0.046 0.016 0.023 0.031 0.046 0.046 0.070 0.010 0.017 0.021 0.033 0.031 0.050 0.014 0.023 0.028 0.047 0.042 0.070 0.010 0.017 0.019 0.035 0.029 0.052 0.013 0.024 0.026 0.048 0.038 0.072 0.009 0.018 0.017 0.035 0.026 0.053 0.012 0.025 0.023 0.050 0.035 0.076 0.008 0.017 0.016 0.035 0.023 0.052 0.012 0.027 0.022 0.054 0.033 0.081 0.006 0.016 0.013 0.033 0.019 0.050 0.012 0.031 0.022 0.063 0.033 0.095 0.004 0.013 0.009 0.026 0.013 0.039 0.014 0.045 0.027 0.091 0.040 0.136 0.002 0.007 0.003 0.015 0.005 0.022 0.010 0.039 0.019 0.078 0.028 0.117 0.004 0.016 0.006 0.032 0.009 0.048 0.005 0.025 0.010 0.049 0.015 0.074h8.717v-14.625c0-0.272 0.226-0.492 0.504-0.492h7.293c0.012 0 0.051 0 0.075-0.044s0.003-0.074-0.004-0.084l-1.578-2.31c-0.153-0.224-0.408-0.357-0.684-0.357h-13.172c-0.073 0-0.142 0.028-0.195 0.079l-0.834 0.814c-0.242 0.237-0.565 0.367-0.908 0.367h-8.686c-0.45 0-0.817 0.357-0.817 0.797v12.627z"></path>
<path d="M14.081 9.838h3.191c0.644 0 1.169 0.511 1.169 1.14v10.532c0 0.272-0.226 0.492-0.504 0.492h-4.52c-0.278 0-0.504-0.22-0.504-0.492v-10.532c-0-0.629 0.524-1.14 1.169-1.14zM13.921 21.019h3.511v-5.787h-3.511v5.787zM13.921 14.248h3.511v-3.269c0-0.086-0.072-0.156-0.16-0.156h-3.191c-0.088 0-0.16 0.070-0.16 0.156v3.269h0zM3.875 9.838h6.17c0.713 0 1.293 0.566 1.293 1.262v2.87c0 0.696-0.58 1.262-1.293 1.262h-6.17c-0.713 0-1.293-0.566-1.293-1.262v-2.87c0-0.696 0.581-1.262 1.294-1.262zM3.59 13.97c0 0.153 0.127 0.278 0.284 0.278h6.17c0.157 0 0.284-0.124 0.284-0.278v-2.87c0-0.153-0.128-0.278-0.284-0.278h-6.17c-0.157 0-0.284 0.124-0.284 0.278v2.87h0z"></path>
</symbol>
<symbol id="fully-Integrated" viewBox="0 0 32 32">
<path d="M1.826 6.060h8.686c0.073 0 0.142-0.028 0.194-0.079l0.834-0.814c0.243-0.237 0.565-0.367 0.908-0.367h13.172c0.613 0 1.183 0.297 1.523 0.795l1.579 2.31c0.224 0.328 0.244 0.747 0.054 1.095s-0.56 0.563-0.964 0.563h-6.789v0.669h3.477c0.922 0 1.751 0.534 2.112 1.361l2.036 4.655 1.783 0.696c0.952 0.372 1.568 1.258 1.568 2.259v4.311c0 0.643-0.536 1.166-1.195 1.166h-2.075c-0.241 1.427-1.515 2.52-3.045 2.52s-2.804-1.092-3.045-2.52h-11.342c-0.241 1.427-1.515 2.52-3.045 2.52s-2.804-1.092-3.045-2.52h-4.145c-0.586 0-1.063-0.465-1.063-1.037v-15.803c0-0.982 0.819-1.781 1.826-1.781zM25.685 26.216c1.146 0 2.078-0.909 2.078-2.027s-0.932-2.027-2.078-2.027c-1.146 0-2.078 0.909-2.078 2.027s0.932 2.027 2.078 2.027zM21.024 23.696h1.615c0.004-0.025 0.009-0.049 0.014-0.073 0.003-0.017 0.006-0.033 0.010-0.050 0.008-0.039 0.017-0.077 0.027-0.115 0.002-0.008 0.004-0.016 0.006-0.024 0.012-0.046 0.025-0.091 0.040-0.136 0.004-0.013 0.009-0.026 0.013-0.039 0.010-0.032 0.021-0.063 0.033-0.094 0.006-0.017 0.013-0.033 0.020-0.050 0.010-0.027 0.021-0.054 0.033-0.081 0.007-0.018 0.015-0.035 0.023-0.052 0.011-0.026 0.023-0.050 0.035-0.076 0.009-0.018 0.017-0.035 0.027-0.053 0.012-0.024 0.025-0.048 0.038-0.072 0.009-0.017 0.019-0.035 0.029-0.052 0.013-0.024 0.027-0.047 0.042-0.070 0.010-0.017 0.020-0.033 0.030-0.050 0.015-0.024 0.031-0.047 0.046-0.070 0.010-0.015 0.021-0.031 0.031-0.046 0.017-0.025 0.036-0.049 0.054-0.074 0.009-0.013 0.019-0.026 0.028-0.039 0.025-0.032 0.050-0.063 0.076-0.094 0.004-0.005 0.007-0.009 0.011-0.014 0.030-0.035 0.061-0.070 0.092-0.104 0.010-0.011 0.020-0.020 0.030-0.031 0.022-0.023 0.044-0.046 0.067-0.069 0.013-0.013 0.026-0.025 0.039-0.037 0.021-0.020 0.042-0.039 0.063-0.059 0.014-0.013 0.029-0.025 0.043-0.038 0.021-0.018 0.042-0.036 0.063-0.054l0.046-0.037c0.021-0.017 0.043-0.034 0.065-0.050 0.016-0.012 0.032-0.024 0.048-0.035 0.022-0.016 0.045-0.032 0.068-0.047 0.016-0.011 0.032-0.022 0.048-0.032 0.024-0.016 0.048-0.031 0.073-0.046 0.016-0.009 0.031-0.019 0.048-0.029 0.027-0.016 0.054-0.031 0.082-0.046 0.014-0.008 0.028-0.016 0.042-0.023 0.039-0.020 0.078-0.040 0.118-0.059 0.003-0.001 0.006-0.003 0.009-0.004 0.043-0.020 0.086-0.039 0.13-0.057 0.014-0.006 0.029-0.011 0.043-0.017 0.030-0.012 0.060-0.024 0.091-0.035 0.017-0.006 0.035-0.012 0.052-0.018 0.028-0.009 0.056-0.019 0.084-0.028 0.019-0.006 0.038-0.011 0.057-0.017 0.027-0.008 0.055-0.016 0.082-0.023 0.020-0.005 0.040-0.010 0.060-0.015 0.027-0.007 0.055-0.013 0.083-0.018 0.020-0.004 0.040-0.009 0.061-0.013 0.028-0.005 0.057-0.010 0.085-0.015 0.020-0.004 0.040-0.007 0.060-0.009 0.029-0.004 0.059-0.008 0.090-0.011 0.019-0.002 0.038-0.005 0.058-0.006 0.033-0.003 0.067-0.006 0.1-0.007 0.017-0.001 0.033-0.003 0.049-0.003 0.050-0.003 0.1-0.004 0.151-0.004s0.101 0.001 0.151 0.004c0.017 0 0.033 0.002 0.049 0.003 0.034 0.002 0.067 0.004 0.1 0.007 0.019 0.002 0.039 0.004 0.058 0.006 0.030 0.004 0.060 0.007 0.090 0.011 0.021 0.003 0.040 0.006 0.061 0.009 0.029 0.004 0.057 0.009 0.085 0.015 0.021 0.004 0.041 0.008 0.061 0.013 0.028 0.006 0.055 0.012 0.083 0.018 0.020 0.005 0.040 0.010 0.060 0.015 0.027 0.007 0.055 0.015 0.082 0.023 0.019 0.006 0.038 0.011 0.057 0.017 0.028 0.009 0.056 0.018 0.084 0.028 0.017 0.006 0.035 0.012 0.052 0.018 0.031 0.011 0.061 0.023 0.091 0.035 0.014 0.006 0.029 0.011 0.043 0.017 0.044 0.018 0.087 0.037 0.13 0.057 0.003 0.002 0.006 0.003 0.009 0.004 0.040 0.019 0.079 0.039 0.118 0.059 0.014 0.007 0.027 0.015 0.042 0.023 0.027 0.015 0.055 0.030 0.082 0.046 0.016 0.009 0.032 0.019 0.048 0.029 0.024 0.015 0.049 0.030 0.073 0.046 0.016 0.011 0.032 0.022 0.048 0.032 0.023 0.016 0.046 0.031 0.068 0.047 0.016 0.011 0.032 0.023 0.048 0.035 0.022 0.016 0.044 0.033 0.065 0.050l0.046 0.037c0.021 0.018 0.042 0.035 0.063 0.054 0.015 0.013 0.029 0.025 0.043 0.038 0.021 0.019 0.042 0.039 0.063 0.059 0.013 0.012 0.026 0.024 0.039 0.037 0.023 0.023 0.045 0.046 0.067 0.069 0.010 0.010 0.020 0.020 0.030 0.031 0.031 0.034 0.062 0.068 0.092 0.104 0.004 0.005 0.008 0.009 0.011 0.014 0.026 0.031 0.051 0.062 0.076 0.094 0.010 0.013 0.019 0.026 0.028 0.039 0.019 0.024 0.037 0.049 0.054 0.074 0.010 0.015 0.021 0.030 0.031 0.046 0.016 0.024 0.031 0.047 0.046 0.070 0.010 0.017 0.020 0.033 0.030 0.050 0.014 0.023 0.028 0.047 0.042 0.070 0.010 0.017 0.019 0.035 0.029 0.052 0.013 0.024 0.026 0.048 0.038 0.072 0.009 0.018 0.018 0.035 0.027 0.053 0.012 0.025 0.023 0.050 0.035 0.076 0.008 0.017 0.016 0.035 0.023 0.052 0.012 0.027 0.022 0.054 0.033 0.081 0.007 0.016 0.013 0.033 0.020 0.050 0.011 0.031 0.022 0.063 0.033 0.094 0.004 0.013 0.009 0.026 0.013 0.039 0.014 0.045 0.027 0.090 0.040 0.136 0.002 0.008 0.004 0.016 0.006 0.024 0.010 0.038 0.019 0.076 0.027 0.115 0.004 0.016 0.006 0.033 0.010 0.050 0.005 0.024 0.010 0.048 0.014 0.073h2.074c0.103 0 0.186-0.082 0.186-0.182v-2.062h-0.787v-0.984h0.787v-1.264c0-0.596-0.366-1.124-0.933-1.345l-1.888-0.737h-7.146v6.574zM21.024 16.138h6.48l-1.818-4.158c-0.203-0.464-0.668-0.763-1.185-0.763h-3.477v4.921zM8.252 26.216c1.146 0 2.078-0.909 2.078-2.027s-0.932-2.027-2.078-2.027c-0.036 0-0.071 0.001-0.107 0.003-0.955 0.047-1.742 0.727-1.929 1.616-0.007 0.033-0.013 0.067-0.019 0.1-0.011 0.067-0.017 0.135-0.021 0.204-0.002 0.035-0.003 0.069-0.003 0.104 0 1.118 0.932 2.027 2.078 2.027zM1.009 20.468h0.787v0.984h-0.787v2.192c0 0.029 0.024 0.052 0.054 0.052h4.144c0.004-0.024 0.009-0.048 0.014-0.072 0.003-0.017 0.006-0.034 0.010-0.051 0.008-0.038 0.017-0.075 0.027-0.112 0.002-0.009 0.004-0.018 0.006-0.026 0.012-0.046 0.025-0.090 0.040-0.135 0.004-0.014 0.009-0.028 0.014-0.041 0.011-0.031 0.021-0.062 0.032-0.093 0.006-0.017 0.013-0.034 0.020-0.051 0.011-0.027 0.021-0.054 0.032-0.080 0.008-0.018 0.016-0.036 0.024-0.054 0.011-0.025 0.023-0.050 0.035-0.074 0.008-0.018 0.018-0.036 0.027-0.054 0.012-0.024 0.025-0.048 0.038-0.072 0.010-0.017 0.019-0.035 0.029-0.052 0.014-0.024 0.027-0.047 0.042-0.070 0.010-0.017 0.020-0.033 0.031-0.050 0.015-0.024 0.030-0.047 0.046-0.070 0.010-0.016 0.021-0.032 0.031-0.046 0.017-0.025 0.035-0.049 0.053-0.073 0.010-0.013 0.019-0.027 0.029-0.040 0.024-0.031 0.049-0.062 0.074-0.092 0.004-0.006 0.008-0.011 0.013-0.016 0.030-0.035 0.061-0.070 0.092-0.104 0.010-0.011 0.020-0.021 0.030-0.032 0.022-0.023 0.044-0.046 0.067-0.068 0.013-0.013 0.026-0.025 0.040-0.037 0.021-0.020 0.041-0.039 0.063-0.058 0.014-0.013 0.029-0.025 0.044-0.038 0.021-0.018 0.042-0.035 0.063-0.053 0.015-0.013 0.031-0.025 0.046-0.037 0.021-0.017 0.043-0.033 0.065-0.050 0.016-0.012 0.032-0.024 0.048-0.035 0.022-0.016 0.045-0.032 0.067-0.047 0.017-0.011 0.033-0.022 0.049-0.033 0.024-0.016 0.048-0.031 0.072-0.045 0.016-0.010 0.032-0.020 0.048-0.029 0.027-0.016 0.054-0.031 0.081-0.046 0.014-0.008 0.028-0.016 0.042-0.023 0.038-0.020 0.077-0.040 0.117-0.058 0.003-0.002 0.006-0.004 0.010-0.005 0.043-0.020 0.086-0.039 0.13-0.057 0.014-0.006 0.029-0.011 0.043-0.017 0.030-0.012 0.060-0.024 0.091-0.035 0.017-0.006 0.035-0.012 0.053-0.018 0.027-0.009 0.055-0.019 0.084-0.028 0.019-0.006 0.038-0.011 0.057-0.017 0.027-0.008 0.055-0.016 0.082-0.023 0.020-0.005 0.040-0.010 0.060-0.015 0.027-0.007 0.055-0.013 0.083-0.018 0.020-0.004 0.040-0.009 0.061-0.013 0.028-0.005 0.056-0.010 0.085-0.015 0.020-0.004 0.040-0.007 0.061-0.009 0.029-0.004 0.059-0.008 0.090-0.011 0.019-0.002 0.038-0.005 0.058-0.006 0.033-0.003 0.067-0.006 0.1-0.007 0.016-0.001 0.033-0.003 0.049-0.003 0.050-0.003 0.1-0.004 0.151-0.004s0.101 0.001 0.151 0.004c0.017 0 0.033 0.002 0.049 0.003 0.033 0.002 0.067 0.004 0.1 0.007 0.019 0.002 0.039 0.004 0.058 0.006 0.030 0.004 0.060 0.007 0.090 0.011 0.021 0.003 0.040 0.006 0.060 0.009 0.029 0.004 0.057 0.009 0.085 0.015 0.021 0.004 0.041 0.008 0.061 0.013 0.028 0.006 0.055 0.012 0.083 0.018 0.020 0.005 0.040 0.010 0.060 0.015 0.027 0.007 0.055 0.015 0.082 0.023 0.019 0.006 0.038 0.011 0.057 0.017 0.028 0.009 0.056 0.018 0.084 0.028 0.018 0.006 0.036 0.012 0.053 0.018 0.031 0.011 0.061 0.023 0.091 0.035 0.014 0.006 0.029 0.011 0.043 0.017 0.044 0.018 0.087 0.037 0.13 0.057 0.004 0.002 0.007 0.003 0.010 0.005 0.040 0.019 0.078 0.038 0.117 0.058 0.014 0.007 0.028 0.015 0.042 0.023 0.027 0.015 0.054 0.030 0.081 0.046 0.016 0.009 0.032 0.019 0.048 0.029 0.024 0.015 0.048 0.030 0.072 0.045 0.016 0.011 0.032 0.022 0.049 0.033 0.023 0.015 0.045 0.031 0.067 0.047 0.016 0.011 0.032 0.023 0.048 0.035 0.022 0.016 0.044 0.033 0.065 0.050 0.016 0.012 0.031 0.025 0.046 0.037 0.021 0.017 0.042 0.035 0.063 0.053 0.015 0.013 0.029 0.025 0.044 0.038 0.021 0.019 0.042 0.039 0.063 0.059 0.013 0.012 0.026 0.024 0.039 0.037 0.023 0.022 0.045 0.046 0.067 0.069 0.010 0.010 0.020 0.020 0.030 0.031 0.031 0.034 0.062 0.068 0.092 0.104 0.004 0.005 0.008 0.010 0.012 0.015 0.025 0.031 0.051 0.062 0.075 0.094 0.010 0.013 0.019 0.026 0.029 0.039 0.018 0.024 0.036 0.049 0.054 0.074 0.010 0.015 0.021 0.031 0.031 0.046 0.016 0.023 0.031 0.046 0.046 0.070 0.010 0.017 0.021 0.033 0.031 0.050 0.014 0.023 0.028 0.047 0.042 0.070 0.010 0.017 0.019 0.035 0.029 0.052 0.013 0.024 0.026 0.048 0.038 0.072 0.009 0.018 0.017 0.035 0.026 0.053 0.012 0.025 0.023 0.050 0.035 0.076 0.008 0.017 0.016 0.035 0.023 0.052 0.012 0.027 0.022 0.054 0.033 0.081 0.006 0.016 0.013 0.033 0.019 0.050 0.012 0.031 0.022 0.063 0.033 0.095 0.004 0.013 0.009 0.026 0.013 0.039 0.014 0.045 0.027 0.091 0.040 0.136 0.002 0.007 0.003 0.015 0.005 0.022 0.010 0.039 0.019 0.078 0.028 0.117 0.004 0.016 0.006 0.032 0.009 0.048 0.005 0.025 0.010 0.049 0.015 0.074h8.717v-14.625c0-0.272 0.226-0.492 0.504-0.492h7.293c0.012 0 0.051 0 0.075-0.044s0.003-0.074-0.004-0.084l-1.578-2.31c-0.153-0.224-0.408-0.357-0.684-0.357h-13.172c-0.073 0-0.142 0.028-0.195 0.079l-0.834 0.814c-0.242 0.237-0.565 0.367-0.908 0.367h-8.686c-0.45 0-0.817 0.357-0.817 0.797v12.627z"></path>
<path d="M14.081 9.838h3.191c0.644 0 1.169 0.511 1.169 1.14v10.532c0 0.272-0.226 0.492-0.504 0.492h-4.52c-0.278 0-0.504-0.22-0.504-0.492v-10.532c-0-0.629 0.524-1.14 1.169-1.14zM13.921 21.019h3.511v-5.787h-3.511v5.787zM13.921 14.248h3.511v-3.269c0-0.086-0.072-0.156-0.16-0.156h-3.191c-0.088 0-0.16 0.070-0.16 0.156l0 3.269z"></path>
</symbol>
<symbol id="van" viewBox="0 0 32 32">
<path d="M1.826 6.060h8.686c0.073 0 0.142-0.028 0.194-0.079l0.834-0.814c0.243-0.237 0.565-0.367 0.908-0.367h13.172c0.613 0 1.183 0.297 1.523 0.795l1.579 2.31c0.224 0.328 0.244 0.747 0.054 1.095s-0.56 0.563-0.964 0.563h-6.789v0.669h3.477c0.922 0 1.751 0.534 2.112 1.361l2.036 4.655 1.783 0.696c0.952 0.372 1.568 1.258 1.568 2.259v4.311c0 0.643-0.536 1.166-1.195 1.166h-2.075c-0.241 1.427-1.515 2.52-3.045 2.52s-2.804-1.092-3.045-2.52h-11.342c-0.241 1.427-1.515 2.52-3.045 2.52s-2.804-1.092-3.045-2.52h-4.145c-0.586 0-1.063-0.465-1.063-1.037v-15.803c0-0.982 0.819-1.781 1.826-1.781zM25.685 26.216c1.146 0 2.078-0.909 2.078-2.027s-0.932-2.027-2.078-2.027c-1.146 0-2.078 0.909-2.078 2.027s0.932 2.027 2.078 2.027zM21.024 23.696h1.615c0.004-0.025 0.009-0.049 0.014-0.073 0.003-0.017 0.006-0.033 0.010-0.050 0.008-0.039 0.017-0.077 0.027-0.115 0.002-0.008 0.004-0.016 0.006-0.024 0.012-0.046 0.025-0.091 0.040-0.136 0.004-0.013 0.009-0.026 0.013-0.039 0.010-0.032 0.021-0.063 0.033-0.094 0.006-0.017 0.013-0.033 0.020-0.050 0.010-0.027 0.021-0.054 0.033-0.081 0.007-0.018 0.015-0.035 0.023-0.052 0.011-0.026 0.023-0.050 0.035-0.076 0.009-0.018 0.017-0.035 0.027-0.053 0.012-0.024 0.025-0.048 0.038-0.072 0.009-0.017 0.019-0.035 0.029-0.052 0.013-0.024 0.027-0.047 0.042-0.070 0.010-0.017 0.020-0.033 0.030-0.050 0.015-0.024 0.031-0.047 0.046-0.070 0.010-0.015 0.021-0.031 0.031-0.046 0.017-0.025 0.036-0.049 0.054-0.074 0.009-0.013 0.019-0.026 0.028-0.039 0.025-0.032 0.050-0.063 0.076-0.094 0.004-0.005 0.007-0.009 0.011-0.014 0.030-0.035 0.061-0.070 0.092-0.104 0.010-0.011 0.020-0.020 0.030-0.031 0.022-0.023 0.044-0.046 0.067-0.069 0.013-0.013 0.026-0.025 0.039-0.037 0.021-0.020 0.042-0.039 0.063-0.059 0.014-0.013 0.029-0.025 0.043-0.038 0.021-0.018 0.042-0.036 0.063-0.054l0.046-0.037c0.021-0.017 0.043-0.034 0.065-0.050 0.016-0.012 0.032-0.024 0.048-0.035 0.022-0.016 0.045-0.032 0.068-0.047 0.016-0.011 0.032-0.022 0.048-0.032 0.024-0.016 0.048-0.031 0.073-0.046 0.016-0.009 0.031-0.019 0.048-0.029 0.027-0.016 0.054-0.031 0.082-0.046 0.014-0.008 0.028-0.016 0.042-0.023 0.039-0.020 0.078-0.040 0.118-0.059 0.003-0.001 0.006-0.003 0.009-0.004 0.043-0.020 0.086-0.039 0.13-0.057 0.014-0.006 0.029-0.011 0.043-0.017 0.030-0.012 0.060-0.024 0.091-0.035 0.017-0.006 0.035-0.012 0.052-0.018 0.028-0.009 0.056-0.019 0.084-0.028 0.019-0.006 0.038-0.011 0.057-0.017 0.027-0.008 0.055-0.016 0.082-0.023 0.020-0.005 0.040-0.010 0.060-0.015 0.027-0.007 0.055-0.013 0.083-0.018 0.020-0.004 0.040-0.009 0.061-0.013 0.028-0.005 0.057-0.010 0.085-0.015 0.020-0.004 0.040-0.007 0.060-0.009 0.029-0.004 0.059-0.008 0.090-0.011 0.019-0.002 0.038-0.005 0.058-0.006 0.033-0.003 0.067-0.006 0.1-0.007 0.017-0.001 0.033-0.003 0.049-0.003 0.050-0.003 0.1-0.004 0.151-0.004s0.101 0.001 0.151 0.004c0.017 0 0.033 0.002 0.049 0.003 0.034 0.002 0.067 0.004 0.1 0.007 0.019 0.002 0.039 0.004 0.058 0.006 0.030 0.004 0.060 0.007 0.090 0.011 0.021 0.003 0.040 0.006 0.061 0.009 0.029 0.004 0.057 0.009 0.085 0.015 0.021 0.004 0.041 0.008 0.061 0.013 0.028 0.006 0.055 0.012 0.083 0.018 0.020 0.005 0.040 0.010 0.060 0.015 0.027 0.007 0.055 0.015 0.082 0.023 0.019 0.006 0.038 0.011 0.057 0.017 0.028 0.009 0.056 0.018 0.084 0.028 0.017 0.006 0.035 0.012 0.052 0.018 0.031 0.011 0.061 0.023 0.091 0.035 0.014 0.006 0.029 0.011 0.043 0.017 0.044 0.018 0.087 0.037 0.13 0.057 0.003 0.002 0.006 0.003 0.009 0.004 0.040 0.019 0.079 0.039 0.118 0.059 0.014 0.007 0.027 0.015 0.042 0.023 0.027 0.015 0.055 0.030 0.082 0.046 0.016 0.009 0.032 0.019 0.048 0.029 0.024 0.015 0.049 0.030 0.073 0.046 0.016 0.011 0.032 0.022 0.048 0.032 0.023 0.016 0.046 0.031 0.068 0.047 0.016 0.011 0.032 0.023 0.048 0.035 0.022 0.016 0.044 0.033 0.065 0.050l0.046 0.037c0.021 0.018 0.042 0.035 0.063 0.054 0.015 0.013 0.029 0.025 0.043 0.038 0.021 0.019 0.042 0.039 0.063 0.059 0.013 0.012 0.026 0.024 0.039 0.037 0.023 0.023 0.045 0.046 0.067 0.069 0.010 0.010 0.020 0.020 0.030 0.031 0.031 0.034 0.062 0.068 0.092 0.104 0.004 0.005 0.008 0.009 0.011 0.014 0.026 0.031 0.051 0.062 0.076 0.094 0.010 0.013 0.019 0.026 0.028 0.039 0.019 0.024 0.037 0.049 0.054 0.074 0.010 0.015 0.021 0.030 0.031 0.046 0.016 0.024 0.031 0.047 0.046 0.070 0.010 0.017 0.020 0.033 0.030 0.050 0.014 0.023 0.028 0.047 0.042 0.070 0.010 0.017 0.019 0.035 0.029 0.052 0.013 0.024 0.026 0.048 0.038 0.072 0.009 0.018 0.018 0.035 0.027 0.053 0.012 0.025 0.023 0.050 0.035 0.076 0.008 0.017 0.016 0.035 0.023 0.052 0.012 0.027 0.022 0.054 0.033 0.081 0.007 0.016 0.013 0.033 0.020 0.050 0.011 0.031 0.022 0.063 0.033 0.094 0.004 0.013 0.009 0.026 0.013 0.039 0.014 0.045 0.027 0.090 0.040 0.136 0.002 0.008 0.004 0.016 0.006 0.024 0.010 0.038 0.019 0.076 0.027 0.115 0.004 0.016 0.006 0.033 0.010 0.050 0.005 0.024 0.010 0.048 0.014 0.073h2.074c0.103 0 0.186-0.082 0.186-0.182v-2.062h-0.787v-0.984h0.787v-1.264c0-0.596-0.366-1.124-0.933-1.345l-1.888-0.737h-7.146v6.574zM21.024 16.138h6.48l-1.818-4.158c-0.203-0.464-0.668-0.763-1.185-0.763h-3.477v4.921zM8.252 26.216c1.146 0 2.078-0.909 2.078-2.027s-0.932-2.027-2.078-2.027c-0.036 0-0.071 0.001-0.107 0.003-0.955 0.047-1.742 0.727-1.929 1.616-0.007 0.033-0.013 0.067-0.019 0.1-0.011 0.067-0.017 0.135-0.021 0.204-0.002 0.035-0.003 0.069-0.003 0.104 0 1.118 0.932 2.027 2.078 2.027zM1.009 20.468h0.787v0.984h-0.787v2.192c0 0.029 0.024 0.052 0.054 0.052h4.144c0.004-0.024 0.009-0.048 0.014-0.072 0.003-0.017 0.006-0.034 0.010-0.051 0.008-0.038 0.017-0.075 0.027-0.112 0.002-0.009 0.004-0.018 0.006-0.026 0.012-0.046 0.025-0.090 0.040-0.135 0.004-0.014 0.009-0.028 0.014-0.041 0.011-0.031 0.021-0.062 0.032-0.093 0.006-0.017 0.013-0.034 0.020-0.051 0.011-0.027 0.021-0.054 0.032-0.080 0.008-0.018 0.016-0.036 0.024-0.054 0.011-0.025 0.023-0.050 0.035-0.074 0.008-0.018 0.018-0.036 0.027-0.054 0.012-0.024 0.025-0.048 0.038-0.072 0.010-0.017 0.019-0.035 0.029-0.052 0.014-0.024 0.027-0.047 0.042-0.070 0.010-0.017 0.020-0.033 0.031-0.050 0.015-0.024 0.030-0.047 0.046-0.070 0.010-0.016 0.021-0.032 0.031-0.046 0.017-0.025 0.035-0.049 0.053-0.073 0.010-0.013 0.019-0.027 0.029-0.040 0.024-0.031 0.049-0.062 0.074-0.092 0.004-0.006 0.008-0.011 0.013-0.016 0.030-0.035 0.061-0.070 0.092-0.104 0.010-0.011 0.020-0.021 0.030-0.032 0.022-0.023 0.044-0.046 0.067-0.068 0.013-0.013 0.026-0.025 0.040-0.037 0.021-0.020 0.041-0.039 0.063-0.058 0.014-0.013 0.029-0.025 0.044-0.038 0.021-0.018 0.042-0.035 0.063-0.053 0.015-0.013 0.031-0.025 0.046-0.037 0.021-0.017 0.043-0.033 0.065-0.050 0.016-0.012 0.032-0.024 0.048-0.035 0.022-0.016 0.045-0.032 0.067-0.047 0.017-0.011 0.033-0.022 0.049-0.033 0.024-0.016 0.048-0.031 0.072-0.045 0.016-0.010 0.032-0.020 0.048-0.029 0.027-0.016 0.054-0.031 0.081-0.046 0.014-0.008 0.028-0.016 0.042-0.023 0.038-0.020 0.077-0.040 0.117-0.058 0.003-0.002 0.006-0.004 0.010-0.005 0.043-0.020 0.086-0.039 0.13-0.057 0.014-0.006 0.029-0.011 0.043-0.017 0.030-0.012 0.060-0.024 0.091-0.035 0.017-0.006 0.035-0.012 0.053-0.018 0.027-0.009 0.055-0.019 0.084-0.028 0.019-0.006 0.038-0.011 0.057-0.017 0.027-0.008 0.055-0.016 0.082-0.023 0.020-0.005 0.040-0.010 0.060-0.015 0.027-0.007 0.055-0.013 0.083-0.018 0.020-0.004 0.040-0.009 0.061-0.013 0.028-0.005 0.056-0.010 0.085-0.015 0.020-0.004 0.040-0.007 0.061-0.009 0.029-0.004 0.059-0.008 0.090-0.011 0.019-0.002 0.038-0.005 0.058-0.006 0.033-0.003 0.067-0.006 0.1-0.007 0.016-0.001 0.033-0.003 0.049-0.003 0.050-0.003 0.1-0.004 0.151-0.004s0.101 0.001 0.151 0.004c0.017 0 0.033 0.002 0.049 0.003 0.033 0.002 0.067 0.004 0.1 0.007 0.019 0.002 0.039 0.004 0.058 0.006 0.030 0.004 0.060 0.007 0.090 0.011 0.021 0.003 0.040 0.006 0.060 0.009 0.029 0.004 0.057 0.009 0.085 0.015 0.021 0.004 0.041 0.008 0.061 0.013 0.028 0.006 0.055 0.012 0.083 0.018 0.020 0.005 0.040 0.010 0.060 0.015 0.027 0.007 0.055 0.015 0.082 0.023 0.019 0.006 0.038 0.011 0.057 0.017 0.028 0.009 0.056 0.018 0.084 0.028 0.018 0.006 0.036 0.012 0.053 0.018 0.031 0.011 0.061 0.023 0.091 0.035 0.014 0.006 0.029 0.011 0.043 0.017 0.044 0.018 0.087 0.037 0.13 0.057 0.004 0.002 0.007 0.003 0.010 0.005 0.040 0.019 0.078 0.038 0.117 0.058 0.014 0.007 0.028 0.015 0.042 0.023 0.027 0.015 0.054 0.030 0.081 0.046 0.016 0.009 0.032 0.019 0.048 0.029 0.024 0.015 0.048 0.030 0.072 0.045 0.016 0.011 0.032 0.022 0.049 0.033 0.023 0.015 0.045 0.031 0.067 0.047 0.016 0.011 0.032 0.023 0.048 0.035 0.022 0.016 0.044 0.033 0.065 0.050 0.016 0.012 0.031 0.025 0.046 0.037 0.021 0.017 0.042 0.035 0.063 0.053 0.015 0.013 0.029 0.025 0.044 0.038 0.021 0.019 0.042 0.039 0.063 0.059 0.013 0.012 0.026 0.024 0.039 0.037 0.023 0.022 0.045 0.046 0.067 0.069 0.010 0.010 0.020 0.020 0.030 0.031 0.031 0.034 0.062 0.068 0.092 0.104 0.004 0.005 0.008 0.010 0.012 0.015 0.025 0.031 0.051 0.062 0.075 0.094 0.010 0.013 0.019 0.026 0.029 0.039 0.018 0.024 0.036 0.049 0.054 0.074 0.010 0.015 0.021 0.031 0.031 0.046 0.016 0.023 0.031 0.046 0.046 0.070 0.010 0.017 0.021 0.033 0.031 0.050 0.014 0.023 0.028 0.047 0.042 0.070 0.010 0.017 0.019 0.035 0.029 0.052 0.013 0.024 0.026 0.048 0.038 0.072 0.009 0.018 0.017 0.035 0.026 0.053 0.012 0.025 0.023 0.050 0.035 0.076 0.008 0.017 0.016 0.035 0.023 0.052 0.012 0.027 0.022 0.054 0.033 0.081 0.006 0.016 0.013 0.033 0.019 0.050 0.012 0.031 0.022 0.063 0.033 0.095 0.004 0.013 0.009 0.026 0.013 0.039 0.014 0.045 0.027 0.091 0.040 0.136 0.002 0.007 0.003 0.015 0.005 0.022 0.010 0.039 0.019 0.078 0.028 0.117 0.004 0.016 0.006 0.032 0.009 0.048 0.005 0.025 0.010 0.049 0.015 0.074h8.717v-14.625c0-0.272 0.226-0.492 0.504-0.492h7.293c0.012 0 0.051 0 0.075-0.044s0.003-0.074-0.004-0.084l-1.578-2.31c-0.153-0.224-0.408-0.357-0.684-0.357h-13.172c-0.073 0-0.142 0.028-0.195 0.079l-0.834 0.814c-0.242 0.237-0.565 0.367-0.908 0.367h-8.686c-0.45 0-0.817 0.357-0.817 0.797v12.627z"></path>
<path d="M3.875 9.838h6.17c0.713 0 1.293 0.566 1.293 1.262v2.87c0 0.696-0.58 1.262-1.293 1.262h-6.17c-0.713 0-1.293-0.566-1.293-1.262v-2.87c0-0.696 0.581-1.262 1.294-1.262zM3.591 13.97c0 0.153 0.127 0.278 0.284 0.278h6.17c0.157 0 0.284-0.124 0.284-0.278v-2.87c0-0.153-0.128-0.278-0.284-0.278h-6.17c-0.157 0-0.284 0.124-0.284 0.278l0 2.87z"></path>
</symbol>
<symbol id="Rating" viewBox="0 0 32 32">
<path d="M24 6.5c-0.414 0-0.789 0.168-1.061 0.439l-16 16c-0.271 0.271-0.439 0.646-0.439 1.061s0.168 0.789 0.439 1.061v0c0.271 0.271 0.646 0.439 1.061 0.439s0.789-0.168 1.061-0.439l16-16c0.271-0.271 0.439-0.646 0.439-1.061s-0.168-0.789-0.439-1.061v0c-0.271-0.271-0.646-0.439-1.061-0.439v0z"></path>
<path d="M8 6.5c-0.414 0-0.789 0.168-1.061 0.439v0c-0.271 0.271-0.439 0.646-0.439 1.061s0.168 0.789 0.439 1.061l16 16c0.271 0.271 0.646 0.439 1.061 0.439s0.789-0.168 1.061-0.439v0c0.271-0.271 0.439-0.646 0.439-1.061s-0.168-0.789-0.439-1.061l-16-16c-0.271-0.271-0.646-0.439-1.061-0.439v0z"></path>
</symbol>
<symbol id="water" viewBox="0 0 32 32">
<path stroke-linejoin="miter" stroke-linecap="butt" stroke-miterlimit="10" stroke-width="2.4" d="M25 20c0 5.523-3.477 9-9 9s-9-3.477-9-9c0-5.927 6.452-13.928 8.431-16.242 0.070-0.082 0.158-0.148 0.256-0.194s0.205-0.069 0.314-0.069c0.108 0 0.215 0.023 0.314 0.069s0.186 0.111 0.256 0.194c1.978 2.314 8.43 10.316 8.43 16.242z"></path>
<path stroke-linejoin="round" stroke-linecap="round" stroke-miterlimit="4" stroke-width="2.4" d="M21.5 20.5c0 1.193-0.474 2.338-1.318 3.182s-1.988 1.318-3.182 1.318"></path>
</symbol>
<symbol id="freezer" viewBox="0 0 32 32">
<path d="M8.606 1.959c-1.667 0-3.041 1.374-3.041 3.041v20.387c0 1.667 1.374 3.041 3.041 3.041h14.794c1.667 0 3.041-1.374 3.041-3.041v-20.387c0-1.667-1.374-3.041-3.041-3.041zM8.606 4.041h14.794c0.542 0 0.959 0.417 0.959 0.959v20.387c0 0.542-0.417 0.959-0.959 0.959h-14.794c-0.542 0-0.959-0.417-0.959-0.959v-20.387c0-0.543 0.417-0.959 0.959-0.959z"></path>
<path d="M10.313 5.487c-0 0-0 0-0.001 0-0.574 0-1.040 0.466-1.040 1.040 0 0 0 0 0 0.001v-0 4.037c0 0 0 0 0 0.001 0 0.574 0.466 1.040 1.040 1.040 0 0 0 0 0.001 0h-0c0 0 0 0 0.001 0 0.574 0 1.040-0.466 1.040-1.040 0-0 0-0 0-0.001v0-4.037c0-0 0-0 0-0.001 0-0.574-0.466-1.040-1.040-1.040-0 0-0 0-0.001 0h0zM6.606 12.088c-0 0-0 0-0.001 0-0.574 0-1.040 0.466-1.040 1.040 0 0 0 0 0 0.001v-0c0.001 0.573 0.466 1.037 1.040 1.037 0 0 0 0 0.001 0h18.787c0 0 0 0 0.001 0 0.573 0 1.039-0.464 1.040-1.037v-0c0-0 0-0 0-0.001 0-0.574-0.466-1.040-1.040-1.040-0 0-0 0-0.001 0h0zM10.313 14.359c-0 0-0 0-0.001 0-0.574 0-1.040 0.466-1.040 1.040 0 0 0 0 0 0.001v-0 4.041c0 0 0 0 0 0.001 0 0.574 0.466 1.040 1.040 1.040 0 0 0 0 0.001 0h-0c0 0 0 0 0.001 0 0.574 0 1.040-0.466 1.040-1.040 0-0 0-0 0-0.001v0-4.041c0-0 0-0 0-0.001 0-0.574-0.466-1.040-1.040-1.040-0 0-0 0-0.001 0h0zM8.428 26.347c-0 0-0 0-0.001 0-0.574 0-1.040 0.466-1.040 1.040 0 0 0 0 0 0.001v-0 0.7c0 0.515 0.202 1.009 0.566 1.375s0.857 0.574 1.372 0.578c0.001 0 0.003 0 0.005 0s0.003 0 0.005 0h1.647c0.517 0 1.015-0.206 1.381-0.572s0.572-0.864 0.572-1.381v-0.7c0-0 0-0 0-0.001 0-0.574-0.466-1.040-1.040-1.040-0 0-0 0-0.001 0h0c-0 0-0 0-0.001 0-0.574 0-1.040 0.466-1.040 1.040 0 0 0 0 0 0.001v-0 0.572h-1.387v-0.572c0-0 0-0 0-0.001 0-0.573-0.464-1.039-1.037-1.040h-0zM20.1 26.347c-0 0-0 0-0.001 0-0.574 0-1.040 0.466-1.040 1.040 0 0 0 0 0 0.001v-0 0.7c0 0.517 0.206 1.015 0.572 1.381s0.864 0.572 1.381 0.572h1.653c0.517 0 1.015-0.206 1.381-0.572s0.572-0.863 0.572-1.381v-0.7c0-0 0-0 0-0.001 0-0.573-0.464-1.039-1.037-1.040h-0c-0 0-0 0-0.001 0-0.574 0-1.040 0.466-1.040 1.040 0 0 0 0 0 0.001v-0 0.572h-1.4v-0.572c0-0 0-0 0-0.001 0-0.574-0.466-1.040-1.040-1.040-0 0-0 0-0.001 0h0z"></path>
</symbol>
<symbol id="shower" viewBox="0 0 32 32">
<path d="M5.334 4.053c-0 0-0.001 0-0.001 0-0.354 0-0.674 0.143-0.905 0.375v0c-0.231 0.232-0.375 0.551-0.375 0.905s0.143 0.673 0.375 0.905v0l2.656 2.656c-0.934 1.314-1.576 2.815-1.584 4.447-0.008 1.636 0.62 3.147 1.544 4.472l-1.281 1.281c-0.232 0.232-0.376 0.552-0.376 0.906s0.144 0.674 0.376 0.906l0 0c0.232 0.231 0.551 0.375 0.905 0.375s0.673-0.143 0.905-0.375v0l13.334-13.334c0.231-0.232 0.375-0.551 0.375-0.905s-0.143-0.673-0.375-0.905v0c-0.232-0.232-0.552-0.376-0.906-0.376s-0.674 0.144-0.906 0.376l-1.281 1.281c-1.325-0.924-2.836-1.552-4.472-1.544-1.632 0.008-3.133 0.651-4.447 1.584l-2.656-2.656c-0.231-0.231-0.55-0.374-0.903-0.375h-0zM13.353 8.059c0.916-0.005 1.662 0.559 2.45 0.994l-6.75 6.75c-0.435-0.788-0.998-1.534-0.994-2.45 0.007-1.402 0.568-2.743 1.559-3.734s2.332-1.552 3.734-1.559zM21.334 12.053c-0 0-0.001 0-0.001 0-0.707 0-1.28 0.573-1.28 1.28 0 0 0 0.001 0 0.001v-0 0.012c0 0 0 0.001 0 0.001 0 0.707 0.573 1.28 1.28 1.28 0 0 0.001 0 0.001 0h-0c0.706-0.001 1.278-0.574 1.278-1.28 0-0 0-0.001 0-0.001v0-0.012c0-0 0-0.001 0-0.001 0-0.706-0.572-1.279-1.278-1.28h-0zM26.666 13.387c-0.705 0.001-1.277 0.573-1.278 1.278v0.016c0.001 0.705 0.573 1.277 1.278 1.278h0c0 0 0.001 0 0.001 0 0.706 0 1.279-0.572 1.28-1.278v-0.016c-0.001-0.706-0.574-1.278-1.28-1.278-0 0-0.001 0-0.001 0h0zM17.334 16.053c-0 0-0.001 0-0.001 0-0.707 0-1.28 0.573-1.28 1.28 0 0 0 0.001 0 0.001v-0 0.012c0.001 0.706 0.574 1.278 1.28 1.278 0 0 0.001 0 0.001 0h-0c0.705-0.001 1.277-0.573 1.278-1.278v-0.013c0-0 0-0.001 0-0.001 0-0.706-0.572-1.279-1.278-1.28h-0zM22.666 17.387c-0.705 0.001-1.277 0.573-1.278 1.278v0.016c0.001 0.705 0.573 1.277 1.278 1.278h0c0 0 0.001 0 0.001 0 0.706 0 1.279-0.572 1.28-1.278v-0.016c-0.001-0.706-0.574-1.278-1.28-1.278-0 0-0.001 0-0.001 0h0zM13.334 20.053c-0 0-0.001 0-0.001 0-0.707 0-1.28 0.573-1.28 1.28 0 0 0 0.001 0 0.001v-0 0.012c0.001 0.706 0.574 1.278 1.28 1.278 0 0 0.001 0 0.001 0h-0c0.705-0.001 1.277-0.573 1.278-1.278v-0.013c0-0 0-0.001 0-0.001 0-0.706-0.572-1.279-1.278-1.28h-0zM18.666 21.387c-0.705 0.001-1.277 0.573-1.278 1.278v0.016c0.001 0.705 0.573 1.277 1.278 1.278h0c0 0 0.001 0 0.001 0 0.706 0 1.279-0.572 1.28-1.278v-0.016c-0.001-0.706-0.574-1.278-1.28-1.278-0 0-0.001 0-0.001 0h0zM14.666 25.387c-0.705 0.001-1.277 0.573-1.278 1.278v0.016c0.001 0.705 0.573 1.277 1.278 1.278h0c0 0 0.001 0 0.001 0 0.706 0 1.279-0.572 1.28-1.278v-0.016c-0.001-0.706-0.574-1.278-1.28-1.278-0 0-0.001 0-0.001 0h0z"></path>
</symbol>
<symbol id="hob" viewBox="0 0 32 32">
<path fill="none" stroke="#101828" style="stroke: var(--color4, #101828)" stroke-linejoin="miter" stroke-linecap="butt" stroke-miterlimit="4" stroke-width="2.4" d="M12 6.667h16c0.354 0 0.693 0.14 0.943 0.391s0.391 0.589 0.391 0.943v17.333c0 0.354-0.14 0.693-0.391 0.943s-0.589 0.391-0.943 0.391h-16M12 6.667h-8c-0.354 0-0.693 0.14-0.943 0.391s-0.39 0.589-0.39 0.943v17.333c0 0.354 0.14 0.693 0.39 0.943s0.589 0.391 0.943 0.391h8M12 6.667v20"></path>
<path fill="none" stroke="#101828" style="stroke: var(--color4, #101828)" stroke-linejoin="round" stroke-linecap="round" stroke-miterlimit="4" stroke-width="2.4" d="M7.333 11.333v2.667M24.667 10.667l-8 11.333"></path>
<path d="M8.667 18c0-0.736-0.597-1.333-1.333-1.333s-1.333 0.597-1.333 1.333c0 0.736 0.597 1.333 1.333 1.333s1.333-0.597 1.333-1.333z"></path>
<path d="M8.667 22c0-0.736-0.597-1.333-1.333-1.333s-1.333 0.597-1.333 1.333c0 0.736 0.597 1.333 1.333 1.333s1.333-0.597 1.333-1.333z"></path>
</symbol>
<symbol id="Petrol" viewBox="0 0 32 32">
<path d="M26.36 9.64l0.013-0.013-4.96-4.96-1.413 1.413 2.813 2.813c-1.253 0.48-2.147 1.68-2.147 3.107 0 0.438 0.086 0.871 0.254 1.276s0.413 0.772 0.723 1.081c0.625 0.625 1.473 0.976 2.357 0.976 0.48 0 0.92-0.107 1.333-0.28v9.613c0 0.354-0.14 0.693-0.391 0.943s-0.589 0.391-0.943 0.391c-0.354 0-0.693-0.14-0.943-0.391s-0.391-0.589-0.391-0.943v-6c0-0.707-0.281-1.386-0.781-1.886s-1.178-0.781-1.886-0.781h-1.333v-9.333c0-0.707-0.281-1.386-0.781-1.886s-1.178-0.781-1.886-0.781h-8c-0.707 0-1.386 0.281-1.886 0.781s-0.781 1.178-0.781 1.886v21.333h13.333v-10h2v6.667c0 0.884 0.351 1.732 0.976 2.357s1.473 0.976 2.357 0.976c0.438 0 0.871-0.086 1.276-0.254s0.772-0.413 1.081-0.723c0.309-0.309 0.555-0.677 0.723-1.081s0.254-0.838 0.254-1.276v-12.667c0-0.92-0.373-1.76-0.973-2.36zM16 18v7.333h-8v-9.333h8v2zM16 13.333h-8v-6.667h8v6.667zM24 13.333c-0.354 0-0.693-0.14-0.943-0.39s-0.391-0.589-0.391-0.943c0-0.354 0.14-0.693 0.391-0.943s0.589-0.39 0.943-0.39c0.354 0 0.693 0.14 0.943 0.39s0.391 0.589 0.391 0.943c0 0.354-0.14 0.693-0.391 0.943s-0.589 0.39-0.943 0.39z"></path>
</symbol>
<symbol id="AC" viewBox="0 0 32 32">
<path d="M15.504 3.2c-1.501 0-2.956 0.513-4.117 1.45s-1.956 2.241-2.251 3.69l-0.116 0.575c-0.031 0.129-0.035 0.262-0.012 0.392s0.072 0.255 0.144 0.366c0.073 0.111 0.167 0.207 0.278 0.281s0.236 0.126 0.367 0.152c0.132 0.026 0.267 0.025 0.399-0.001s0.256-0.079 0.366-0.155c0.11-0.075 0.204-0.171 0.276-0.283s0.12-0.236 0.142-0.367l0.118-0.573c0.222-1.075 0.84-2.030 1.737-2.681s2.006-0.951 3.114-0.843c1.108 0.108 2.136 0.618 2.884 1.43s1.164 1.868 1.167 2.965c0 1.175-0.474 2.302-1.318 3.134s-1.988 1.298-3.182 1.299h-14.5c-0.265 0-0.52 0.104-0.707 0.288s-0.293 0.435-0.293 0.696c0 0.261 0.105 0.512 0.293 0.696s0.442 0.288 0.707 0.288h14.5c1.696-0.041 3.309-0.733 4.494-1.928s1.849-2.799 1.849-4.47-0.662-3.275-1.846-4.471c-1.184-1.196-2.796-1.889-4.492-1.931zM27 12.062c-1.326 0-2.598 0.519-3.536 1.442s-1.464 2.175-1.464 3.481c0 0.261 0.105 0.512 0.293 0.696s0.442 0.288 0.707 0.288 0.52-0.104 0.707-0.288c0.188-0.185 0.293-0.435 0.293-0.696 0-0.584 0.176-1.155 0.506-1.641s0.798-0.864 1.346-1.088c0.548-0.224 1.151-0.282 1.733-0.168s1.116 0.395 1.536 0.808c0.42 0.413 0.705 0.939 0.821 1.512s0.056 1.167-0.171 1.707c-0.227 0.54-0.612 1.001-1.105 1.326s-1.073 0.498-1.667 0.498h-26c-0.265 0-0.52 0.104-0.707 0.288s-0.293 0.435-0.293 0.696c0 0.261 0.105 0.512 0.293 0.696s0.442 0.288 0.707 0.288h19.5c0.663 0.001 1.298 0.262 1.766 0.724s0.73 1.089 0.729 1.742c-0.001 0.653-0.266 1.279-0.736 1.739s-1.106 0.719-1.769 0.717c-0.597 0-1.175-0.207-1.632-0.587s-0.762-0.905-0.862-1.485l-0.010-0.059c-0.018-0.131-0.062-0.256-0.131-0.37s-0.159-0.212-0.267-0.29-0.23-0.134-0.36-0.165c-0.13-0.031-0.265-0.036-0.397-0.014s-0.258 0.069-0.372 0.14c-0.113 0.071-0.211 0.163-0.287 0.271s-0.129 0.231-0.157 0.36c-0.027 0.129-0.028 0.262-0.002 0.392l0.010 0.059c0.178 1.040 0.724 1.984 1.542 2.664s1.854 1.054 2.924 1.054c1.195 0 2.341-0.466 3.186-1.297s1.322-1.958 1.324-3.134c0-0.912-0.28-1.759-0.758-2.462h2.758c1.326 0 2.598-0.519 3.536-1.442s1.464-2.176 1.464-3.481c0-1.306-0.527-2.558-1.464-3.481s-2.209-1.442-3.536-1.442z"></path>
<path d="M15.504 3.2l0.198-7.998-0.1-0.002-0.1 0 0.002 8zM9.136 8.34l-7.839-1.595-0.003 0.013 7.842 1.582zM9.020 8.915l7.78 1.865 0.034-0.141 0.029-0.142-7.842-1.582zM10.98 9.301l-7.836-1.614-0.030 0.147-0.025 0.148 7.891 1.318zM11.098 8.728v0zM20 9.598h8v-0.020l-8 0.020zM15.5 14.031v8h0.004l-0.004-8zM0 15.015v0zM15.5 16v8h0.096l0.096-0.002-0.193-7.998zM24 16.985v0zM0 20.923v0zM20.5 21.908l0.016-8h-0.016v8zM20.49 26.831l0.016-8h-0.021l0.006 8zM17.996 24.759l-7.888 1.335 0.002 0.013 0.002 0.013 7.883-1.362zM17.986 24.7l-7.925 1.091 0.017 0.123 0.021 0.122 7.888-1.335zM16.014 25.023l7.888-1.335-0.020-0.119-0.024-0.119-7.844 1.573zM16.024 25.082l-7.888 1.335 0.002 0.014 7.885-1.349zM20.49 28.8l0.004-8h-0.005l0.001 8zM25 24.369l8 0.014v-0.014h-8zM24.242 21.908v-8h-15.114l8.498 12.498 6.616-4.498zM15.502-4.8c-3.317 0.001-6.547 1.131-9.139 3.224l10.049 12.451c-0.271 0.219-0.592 0.325-0.906 0.325l-0.004-16zM6.363-1.576c-2.595 2.095-4.397 5.030-5.066 8.32l15.679 3.19c-0.080 0.392-0.29 0.719-0.564 0.94l-10.049-12.451zM1.294 6.758l-0.116 0.575 15.684 3.164 0.116-0.575-15.684-3.164zM1.24 7.050c-0.285 1.188-0.324 2.423-0.115 3.627l15.764-2.74c0.164 0.944 0.133 1.912-0.090 2.843l-15.559-3.73zM1.126 10.677c0.209 1.205 0.662 2.349 1.325 3.366l13.402-8.74c0.518 0.794 0.872 1.69 1.037 2.634l-15.764 2.74zM2.451 14.043c0.663 1.017 1.521 1.883 2.518 2.552l8.922-13.282c0.775 0.521 1.444 1.195 1.962 1.99l-13.402 8.74zM4.969 16.595c0.997 0.67 2.113 1.13 3.283 1.361l3.091-15.699c0.906 0.178 1.773 0.536 2.548 1.056l-8.922 13.282zM8.251 17.956c1.169 0.23 2.373 0.226 3.54-0.011l-3.192-15.678c0.905-0.184 1.837-0.187 2.743-0.009l-3.091 15.699zM11.792 17.944c1.168-0.238 2.282-0.706 3.274-1.382l-9.008-13.224c0.772-0.526 1.636-0.889 2.541-1.073l3.192 15.678zM15.066 16.562c0.993-0.676 1.845-1.548 2.502-2.569l-13.459-8.652c0.513-0.798 1.178-1.477 1.95-2.003l9.008 13.224zM17.568 13.993c0.656-1.021 1.101-2.169 1.303-3.375l-15.781-2.636c0.158-0.945 0.506-1.843 1.019-2.641l13.459 8.652zM18.816 10.914l0.118-0.573-15.671-3.227-0.118 0.573 15.671 3.227zM18.933 10.344c-0.185 0.898-0.696 1.667-1.396 2.175l-9.405-12.944c-2.492 1.81-4.241 4.489-4.869 7.537l15.67 3.233zM17.537 12.519c-0.696 0.506-1.539 0.728-2.367 0.647l1.557-15.924c-3.044-0.298-6.106 0.525-8.594 2.333l9.405 12.944zM15.17 13.166c-0.829-0.081-1.623-0.464-2.218-1.11l11.763-10.846c-2.092-2.269-4.942-3.671-7.988-3.969l-1.557 15.924zM12.951 12.056c-0.598-0.649-0.949-1.516-0.951-2.438l16-0.040c-0.008-3.115-1.19-6.095-3.286-8.368l-11.763 10.846zM12 9.598c0-0.986 0.399-1.907 1.068-2.566l11.228 11.399c2.357-2.322 3.704-5.496 3.704-8.833h-16zM13.068 7.032c0.665-0.655 1.541-1.001 2.428-1.002l0.007 16c3.275-0.001 6.44-1.282 8.793-3.6l-11.228-11.399zM15.5 6.031h-14.5v16h14.5v-16zM1 6.031c-2.347 0-4.623 0.917-6.32 2.588l11.226 11.401c-1.322 1.302-3.089 2.011-4.906 2.011v-16zM-5.32 8.619c-1.701 1.675-2.68 3.974-2.68 6.397h16c0 1.901-0.768 3.699-2.094 5.004l-11.226-11.401zM-8 15.015c0 2.423 0.979 4.722 2.68 6.397l11.226-11.401c1.326 1.306 2.094 3.103 2.094 5.004h-16zM-5.32 21.412c1.697 1.671 3.973 2.588 6.32 2.588v-16c1.817 0 3.584 0.709 4.906 2.011l-11.226 11.401zM1 24h14.5v-16h-14.5v16zM15.693 23.998c3.744-0.090 7.329-1.617 9.982-4.294l-11.363-11.264c0.283-0.285 0.643-0.429 0.995-0.437l0.386 15.995zM25.675 19.704c2.657-2.68 4.167-6.302 4.168-10.1l-16-0.005c0-0.456 0.183-0.87 0.47-1.16l11.363 11.264zM29.843 9.604c0.001-3.797-1.506-7.42-4.161-10.102l-11.37 11.257c-0.287-0.29-0.469-0.704-0.469-1.16l16 0.005zM25.681-0.498c-2.651-2.678-6.236-4.207-9.98-4.3l-0.396 15.995c-0.352-0.009-0.712-0.152-0.995-0.438l11.37-11.257zM27 4.062c-3.408 0-6.701 1.332-9.148 3.741l11.226 11.401c-0.572 0.563-1.321 0.858-2.077 0.858v-16zM17.852 7.803c-2.451 2.414-3.852 5.714-3.852 9.182h16c0 0.856-0.347 1.652-0.923 2.219l-11.226-11.401zM14 16.985c0 2.423 0.979 4.722 2.68 6.397l11.226-11.401c1.326 1.306 2.094 3.103 2.094 5.004h-16zM16.68 23.381c1.697 1.671 3.973 2.588 6.32 2.588v-16c1.817 0 3.584 0.709 4.906 2.011l-11.226 11.401zM23 25.969c2.347 0 4.623-0.917 6.32-2.588l-11.226-11.401c1.322-1.302 3.089-2.011 4.906-2.011v16zM29.32 23.381c1.701-1.675 2.68-3.974 2.68-6.397h-16c0-1.901 0.768-3.699 2.094-5.004l11.226 11.401zM32 16.985c0 1.026-0.31 2.018-0.875 2.851l-13.239-8.985c-1.224 1.804-1.886 3.939-1.886 6.133h16zM31.125 19.836c-0.564 0.831-1.353 1.461-2.252 1.827l-6.042-14.815c-1.996 0.814-3.722 2.2-4.945 4.003l13.239 8.985zM28.873 21.663c-0.898 0.366-1.88 0.46-2.825 0.275l3.075-15.702c-2.11-0.413-4.297-0.202-6.292 0.611l6.042 14.815zM26.048 21.938c-0.946-0.185-1.832-0.646-2.539-1.342l11.226-11.401c-1.546-1.522-3.501-2.545-5.611-2.959l-3.075 15.702zM23.508 20.596c-0.708-0.697-1.205-1.601-1.408-2.604l15.683-3.168c-0.434-2.149-1.502-4.105-3.050-5.629l-11.226 11.401zM22.101 17.992c-0.203-1.004-0.098-2.042 0.297-2.98l14.748 6.204c0.848-2.017 1.072-4.243 0.638-6.393l-15.683 3.168zM22.398 15.013c0.394-0.936 1.052-1.716 1.872-2.256l8.794 13.367c1.807-1.189 3.234-2.891 4.082-4.907l-14.748-6.204zM24.27 12.757c0.819-0.539 1.769-0.819 2.73-0.819v16c2.148 0 4.258-0.627 6.064-1.814l-8.794-13.367zM27 11.938h-26v16h26v-16zM1 11.938c-2.347 0-4.623 0.917-6.32 2.588l11.226 11.401c-1.322 1.302-3.089 2.011-4.906 2.011v-16zM-5.32 14.526c-1.701 1.675-2.68 3.974-2.68 6.397h16c0 1.901-0.768 3.699-2.094 5.004l-11.226-11.401zM-8 20.923c0 2.423 0.979 4.722 2.68 6.397l11.226-11.401c1.326 1.306 2.094 3.103 2.094 5.004h-16zM-5.32 27.32c1.697 1.671 3.973 2.588 6.32 2.588v-16c1.817 0 3.584 0.709 4.906 2.011l-11.226 11.401zM1 29.908h19.5v-16h-19.5v16zM20.484 29.908c-1.419-0.003-2.804-0.559-3.842-1.586l11.248-11.379c-1.975-1.952-4.63-3.030-7.375-3.035l-0.031 16zM16.642 28.321c-1.043-1.031-1.65-2.454-1.647-3.964l16 0.032c0.006-2.815-1.126-5.492-3.104-7.448l-11.248 11.379zM14.995 24.358c0.003-1.509 0.616-2.93 1.663-3.956l11.203 11.423c1.986-1.948 3.129-4.62 3.134-7.435l-16-0.032zM16.658 20.402c1.043-1.023 2.429-1.574 3.848-1.571l-0.032 16c2.745 0.005 5.404-1.062 7.386-3.006l-11.203-11.423zM20.484 18.831c1.259-0.001 2.494 0.436 3.485 1.26l-10.223 12.308c1.904 1.582 4.296 2.434 6.749 2.433l-0.011-16zM23.97 20.090c0.994 0.826 1.682 1.992 1.909 3.307l-15.766 2.724c0.427 2.474 1.726 4.693 3.634 6.277l10.223-12.308zM25.884 23.424l-0.010-0.059-15.776 2.67 0.010 0.059 15.776-2.67zM25.911 23.609c-0.166-1.208-0.577-2.366-1.201-3.404l-13.709 8.25c-0.488-0.812-0.81-1.717-0.94-2.665l15.851-2.181zM24.71 20.205c-0.625-1.038-1.449-1.933-2.419-2.638l-9.404 12.945c-0.755-0.548-1.398-1.246-1.886-2.057l13.709-8.25zM22.291 17.568c-0.97-0.704-2.066-1.205-3.224-1.479l-3.678 15.572c-0.897-0.212-1.748-0.6-2.503-1.148l9.404-12.945zM19.067 16.089c-1.157-0.273-2.356-0.315-3.529-0.123l2.586 15.79c-0.908 0.149-1.838 0.117-2.734-0.095l3.678-15.572zM15.538 15.966c-1.173 0.192-2.3 0.615-3.315 1.248l8.473 13.572c-0.789 0.492-1.664 0.82-2.572 0.969l-2.586-15.79zM12.223 17.214c-1.015 0.634-1.899 1.467-2.595 2.456l13.089 9.202c-0.543 0.772-1.232 1.421-2.021 1.914l-8.473-13.572zM9.628 19.671c-0.696 0.989-1.187 2.113-1.439 3.306l15.654 3.31c-0.198 0.934-0.583 1.814-1.126 2.586l-13.089-9.202zM8.189 22.976c-0.252 1.193-0.259 2.424-0.019 3.62l15.688-3.146c0.188 0.937 0.183 1.902-0.015 2.837l-15.654-3.31zM8.126 26.358l0.010 0.059 15.776-2.67-0.010-0.059-15.776 2.67zM8.139 26.431c0.502 2.936 2.041 5.575 4.309 7.464l10.237-12.297c0.633 0.527 1.079 1.279 1.225 2.135l-15.771 2.698zM12.447 33.895c2.265 1.886 5.116 2.906 8.044 2.905l-0.003-16c0.787-0 1.565 0.273 2.196 0.798l-10.237 12.297zM20.487 36.8c3.275 0.001 6.441-1.276 8.796-3.59l-11.213-11.414c0.664-0.652 1.538-0.997 2.424-0.997l-0.007 16zM29.283 33.21c2.36-2.318 3.711-5.49 3.717-8.827l-16-0.029c0.002-0.984 0.401-1.902 1.070-2.558l11.213 11.414zM33 24.369c0-2.576-0.797-4.981-2.142-6.96l-13.231 8.996c-0.389-0.573-0.626-1.284-0.626-2.037h16zM24.242 29.908h2.758v-16h-2.758v16zM27 29.908c3.408 0 6.701-1.332 9.148-3.741l-11.226-11.401c0.572-0.563 1.321-0.858 2.077-0.858v16zM36.148 26.166c2.451-2.414 3.852-5.714 3.852-9.182h-16c0-0.856 0.347-1.652 0.923-2.219l11.226 11.401zM40 16.985c0-3.468-1.4-6.768-3.852-9.182l-11.226 11.401c-0.576-0.567-0.923-1.363-0.923-2.219h16zM36.148 7.803c-2.447-2.41-5.74-3.741-9.148-3.741v16c-0.756 0-1.505-0.295-2.077-0.858l11.226-11.401z"></path>
</symbol>
<symbol id="automatic" viewBox="0 0 30 32">
<path d="M5.628 1.333c-1.139 0-2.233 0.452-3.038 1.257s-1.257 1.899-1.257 3.038c0 1.139 0.452 2.233 1.257 3.038s1.899 1.26 3.038 1.26 2.233-0.455 3.038-1.26c0.805-0.805 1.26-1.899 1.26-3.038s-0.455-2.233-1.26-3.038c-0.805-0.805-1.899-1.257-3.038-1.257zM5.628 4c0.433 0 0.847 0.17 1.153 0.476s0.479 0.72 0.479 1.153c0 0.433-0.173 0.847-0.479 1.153s-0.72 0.479-1.153 0.479c-0.433 0-0.847-0.173-1.153-0.479s-0.476-0.72-0.476-1.153c0-0.433 0.17-0.847 0.476-1.153s0.72-0.476 1.153-0.476zM23.406 8.74c-0.736 0-1.333 0.597-1.333 1.333v0 7.41c0 0.736 0.597 1.333 1.333 1.333v0c0.736 0 1.333-0.597 1.333-1.333v0-1.632h0.889c0.942 0 1.847-0.375 2.514-1.042s1.042-1.571 1.042-2.514-0.375-1.847-1.042-2.514c-0.666-0.666-1.571-1.042-2.514-1.042zM24.74 11.406h0.889c0.236 0 0.461 0.093 0.628 0.26s0.26 0.392 0.26 0.628-0.093 0.461-0.26 0.628c-0.167 0.167-0.392 0.26-0.628 0.26h-0.889zM23.406 22.073c-0.736 0-1.333 0.597-1.333 1.333v0 5.927c0 0.736 0.597 1.333 1.333 1.333h1.483c1.139 0 2.233-0.451 3.038-1.257s1.257-1.899 1.257-3.038c0-1.139-0.452-2.233-1.257-3.038s-1.899-1.26-3.038-1.26zM24.74 24.74h0.149c0.433 0 0.847 0.173 1.153 0.479s0.476 0.72 0.476 1.153c0 0.433-0.17 0.843-0.476 1.149 0 0.001 0 0.001 0 0.002s0 0.001 0 0.002v-0c-0.306 0.306-0.72 0.476-1.153 0.476h-0.149z"></path>
<path d="M5.628 7.26c-0.736 0-1.333 0.597-1.333 1.333v0 4.444c0 0.746 0.299 1.462 0.826 1.99s1.244 0.823 1.99 0.823h3.111v9.038c0 0.746 0.295 1.462 0.823 1.99s1.247 0.826 1.993 0.826h4.444c0.736 0 1.333-0.597 1.333-1.333v0c0-0.736-0.597-1.333-1.333-1.333h-4.444c-0.040 0-0.079-0.017-0.108-0.045s-0.042-0.064-0.042-0.104v-9.038h4.594c0.736 0 1.333-0.597 1.333-1.333v0c0-0.736-0.597-1.333-1.333-1.333h-10.372c-0.040 0-0.076-0.014-0.104-0.042s-0.045-0.064-0.045-0.104v-4.444c0-0.736-0.597-1.333-1.333-1.333v0z"></path>
</symbol>
<symbol id="adults" viewBox="0 0 32 32">
<path d="M9.067 24.133h-4.4c-0.267 0-0.4-0.133-0.533-0.267s-0.267-0.4-0.133-0.667c0.8-2.267 2.8-3.6 5.067-3.6 2.8 0 5.067-2.4 5.067-5.2s-2.267-5.467-5.067-5.467c-2.8 0-5.067 2.4-5.067 5.333 0 1.333 0.533 2.667 1.333 3.6-1.733 0.933-3.067 2.4-3.867 4.4-0.267 0.933-0.133 2.133 0.533 3.067s1.6 1.467 2.667 1.467h4.4c0.8 0 1.333-0.533 1.333-1.333s-0.533-1.333-1.333-1.333zM6.667 14.267c0-1.467 1.067-2.533 2.4-2.533s2.4 1.2 2.4 2.533c0 1.467-1.067 2.533-2.4 2.533s-2.4-1.2-2.4-2.533z"></path>
<path d="M30.533 21.467c-0.933-2.533-2.8-4.4-4.933-5.467 1.2-1.067 1.867-2.667 1.867-4.533 0-3.467-2.667-6.267-5.867-6.267s-5.867 2.8-5.867 6.267c0 1.733 0.667 3.333 1.867 4.533-2.133 1.067-4 2.933-4.933 5.467-0.667 1.2-0.4 2.533 0.267 3.6s1.867 1.6 3.067 1.6h11.067c1.2 0 2.4-0.667 3.067-1.6 0.8-1.067 0.933-2.4 0.4-3.6zM18.267 11.6c0-2 1.467-3.6 3.2-3.6s3.2 1.6 3.2 3.6-1.467 3.6-3.2 3.6c-1.733 0-3.2-1.733-3.2-3.6zM27.867 23.6c-0.133 0.133-0.4 0.533-0.8 0.533h-11.067c-0.533 0-0.8-0.4-0.8-0.533-0.133-0.133-0.4-0.667-0.133-1.2 1.067-2.8 3.733-4.667 6.533-4.667s5.467 1.867 6.533 4.667c0.133 0.533-0.133 1.067-0.267 1.2z"></path>
</symbol>
<symbol id="radio" viewBox="0 0 32 32">
<path d="M13.334 6.959c-2.514 0-4.42-0.005-5.991 0.206s-2.872 0.684-3.85 1.663c-0.979 0.978-1.451 2.277-1.663 3.847s-0.203 3.477-0.203 5.991c0 2.514-0.008 4.42 0.203 5.991s0.684 2.872 1.663 3.85c0.978 0.979 2.28 1.451 3.85 1.663s3.477 0.203 5.991 0.203h5.331c2.514 0 4.42 0.008 5.991-0.203s2.872-0.684 3.85-1.663c0.979-0.978 1.451-2.28 1.663-3.85s0.203-3.477 0.203-5.991c0-2.514 0.008-4.42-0.203-5.991s-0.684-2.869-1.663-3.847c-0.978-0.979-2.28-1.451-3.85-1.662s-3.477-0.206-5.991-0.206zM13.334 9.041h5.331c2.514 0 4.381 0.005 5.716 0.184s2.070 0.488 2.653 1.072c0.584 0.583 0.892 1.322 1.072 2.656s0.188 3.198 0.188 5.712c0 2.514-0.008 4.381-0.188 5.716s-0.488 2.070-1.072 2.653c-0.583 0.584-1.319 0.892-2.653 1.072s-3.202 0.188-5.716 0.188h-5.331c-2.514 0-4.381-0.008-5.716-0.188s-2.070-0.488-2.653-1.072c-0.584-0.583-0.892-1.319-1.072-2.653s-0.188-3.202-0.188-5.716c0-2.514 0.008-4.378 0.188-5.713s0.488-2.073 1.072-2.656c0.583-0.584 1.319-0.892 2.653-1.072s3.202-0.184 5.716-0.184z"></path>
<path d="M9.334 10.959c-0.983 0-1.927 0.393-2.622 1.088s-1.084 1.636-1.084 2.619c0 0.983 0.39 1.927 1.084 2.622s1.639 1.084 2.622 1.084h13.331c0.983 0 1.927-0.39 2.622-1.084s1.084-1.639 1.084-2.622-0.389-1.924-1.084-2.619c-0.695-0.695-1.639-1.088-2.622-1.088zM9.334 13.041h13.331c0.432 0 0.845 0.17 1.15 0.475s0.478 0.718 0.478 1.15-0.173 0.845-0.478 1.15c-0.305 0.305-0.718 0.478-1.15 0.478h-13.331c-0.432 0-0.845-0.173-1.15-0.478s-0.478-0.718-0.478-1.15 0.173-0.845 0.478-1.15c0.305-0.305 0.718-0.475 1.15-0.475zM10 19.628c-0.806 0-1.58 0.318-2.15 0.887s-0.891 1.344-0.891 2.15c0 0.806 0.321 1.58 0.891 2.15s1.344 0.891 2.15 0.891 1.58-0.321 2.15-0.891c0.57-0.57 0.891-1.344 0.891-2.15s-0.321-1.58-0.891-2.15-1.344-0.887-2.15-0.887zM10 21.706c0.255 0 0.498 0.101 0.678 0.281s0.281 0.423 0.281 0.678c0 0.255-0.101 0.501-0.281 0.681s-0.423 0.281-0.678 0.281-0.498-0.101-0.678-0.281c-0.18-0.18-0.281-0.426-0.281-0.681s0.101-0.498 0.281-0.678 0.423-0.281 0.678-0.281z"></path>
<path d="M19.556 1.725l-11.331 5.334c-0.357 0.17-0.599 0.528-0.599 0.942 0 0.161 0.036 0.313 0.102 0.449l-0.003-0.006c0.17 0.355 0.527 0.596 0.941 0.596 0.161 0 0.314-0.037 0.45-0.102l-0.006 0.003 11.334-5.334c0.355-0.171 0.595-0.527 0.595-0.94 0-0.16-0.036-0.312-0.101-0.448l0.003 0.006c-0.17-0.357-0.528-0.599-0.942-0.599-0.161 0-0.313 0.036-0.449 0.102l0.006-0.003zM20 14.294c-0 0-0 0-0.001 0-0.574 0-1.040 0.466-1.040 1.040 0 0 0 0 0 0.001v-0 2c0 0 0 0 0 0.001 0 0.574 0.466 1.040 1.040 1.040 0 0 0 0 0.001 0h-0c0 0 0 0 0.001 0 0.574 0 1.040-0.466 1.040-1.040 0-0 0-0 0-0.001v0-2c0-0 0-0 0-0.001 0-0.574-0.466-1.040-1.040-1.040-0 0-0 0-0.001 0h0zM17.334 21.628c-0 0-0 0-0.001 0-0.573 0-1.039 0.464-1.040 1.037v0c0 0 0 0 0 0.001 0 0.574 0.466 1.040 1.040 1.040 0 0 0 0 0.001 0h6.666c0 0 0 0 0.001 0 0.574 0 1.040-0.466 1.040-1.040 0-0 0-0 0-0.001v0c-0.001-0.573-0.466-1.038-1.040-1.038-0 0-0 0-0.001 0h0z"></path>
</symbol>
<symbol id="CD" viewBox="0 0 32 32">
<path d="M16 1.333c-8.084 0-14.667 6.582-14.667 14.667s6.582 14.667 14.667 14.667c8.084 0 14.667-6.582 14.667-14.667s-6.582-14.667-14.667-14.667zM16 4c6.643 0 12 5.357 12 12s-5.357 12-12 12c-6.643 0-12-5.357-12-12s5.357-12 12-12z"></path>
<path d="M16 6.517c-5.221 0-9.483 4.262-9.483 9.483 0 0.736 0.597 1.333 1.333 1.333v0c0.736 0 1.333-0.597 1.333-1.333v0c0-3.779 3.037-6.816 6.816-6.816 0.736 0 1.333-0.597 1.333-1.333v0c0-0.736-0.597-1.333-1.333-1.333v0z"></path>
<path d="M16 10.962c-2.766 0-5.038 2.272-5.038 5.038s2.272 5.038 5.038 5.038c2.766 0 5.038-2.272 5.038-5.038s-2.272-5.038-5.038-5.038zM16 13.628c1.325 0 2.372 1.047 2.372 2.372s-1.047 2.372-2.372 2.372c-1.325 0-2.372-1.047-2.372-2.372s1.047-2.372 2.372-2.372z"></path>
</symbol>
<symbol id="toilet" viewBox="0 0 32 32">
<path d="M24 4c1.939 0 3.269 1.647 4.040 3.313 0.761 1.653 1.224 3.811 1.287 6.145l0.007 0.541v12.667c0 0.18-0.036 0.357-0.106 0.523s-0.173 0.315-0.303 0.439c-0.13 0.125-0.283 0.222-0.451 0.285s-0.347 0.093-0.527 0.086l-0.165-0.019-3.781-0.629-3.781 0.629c-0.16 0.027-0.324 0.024-0.483-0.008l-0.157-0.041-3.579-1.193-3.579 1.193c-0.188 0.063-0.387 0.083-0.583 0.059s-0.385-0.092-0.552-0.197-0.309-0.248-0.414-0.415c-0.105-0.167-0.172-0.356-0.196-0.553l-0.009-0.159v-3.903c-0.708 0.733-1.595 1.236-2.667 1.236-1.939 0-3.269-1.647-4.040-3.313-0.819-1.78-1.293-4.145-1.293-6.687s0.473-4.907 1.293-6.687c0.735-1.592 1.981-3.164 3.78-3.303l0.26-0.011h16zM24 6.667h-12.291c0.12 0.213 0.229 0.429 0.329 0.647 0.821 1.78 1.295 4.145 1.295 6.687v10.817l2.245-0.749c0.274-0.091 0.569-0.091 0.843 0l3.687 1.229 3.673-0.613c0.144-0.024 0.293-0.024 0.437 0l2.448 0.409v-11.093c0-2.245-0.423-4.213-1.049-5.569-0.677-1.471-1.347-1.764-1.617-1.764zM8 6.667c-0.271 0-0.94 0.293-1.617 1.764-0.627 1.356-1.049 3.324-1.049 5.569s0.423 4.213 1.049 5.569c0.677 1.471 1.347 1.764 1.617 1.764s0.94-0.293 1.617-1.764c0.627-1.356 1.049-3.324 1.049-5.569s-0.423-4.213-1.049-5.569c-0.677-1.471-1.347-1.764-1.617-1.764zM8 11.333c0.736 0 1.333 1.193 1.333 2.667s-0.597 2.667-1.333 2.667c-0.736 0-1.333-1.193-1.333-2.667s0.597-2.667 1.333-2.667z"></path>
</symbol>
<symbol id="gas" viewBox="0 0 32 32">
<path d="M25.072 13.991c-0.368-0.453-0.816-0.846-1.232-1.239-1.072-0.907-2.288-1.556-3.311-2.508-2.384-2.206-2.912-5.848-1.392-8.644-1.52 0.348-2.848 1.133-3.983 1.995-4.143 3.143-5.775 8.689-3.823 13.449 0.064 0.151 0.128 0.302 0.128 0.499 0 0.332-0.24 0.635-0.56 0.756-0.368 0.151-0.752 0.060-1.056-0.181-0.091-0.071-0.167-0.159-0.224-0.257-1.808-2.161-2.096-5.259-0.88-7.737-2.672 2.055-4.127 5.531-3.919 8.81 0.096 0.756 0.192 1.511 0.464 2.267 0.224 0.907 0.656 1.813 1.136 2.614 1.728 2.614 4.719 4.488 7.935 4.866 3.423 0.408 7.087-0.181 9.71-2.418 2.927-2.508 3.951-6.528 2.448-9.974l-0.208-0.393c-0.336-0.695-1.232-1.904-1.232-1.904zM20.017 23.512c-0.448 0.363-1.184 0.756-1.76 0.907-1.792 0.604-3.583-0.242-4.639-1.239 1.904-0.423 3.039-1.753 3.375-3.098 0.272-1.209-0.24-2.206-0.448-3.37-0.192-1.118-0.16-2.070 0.272-3.113 0.304 0.574 0.624 1.148 1.008 1.602 1.232 1.511 3.167 2.176 3.583 4.231 0.064 0.212 0.096 0.423 0.096 0.65 0.048 1.239-0.528 2.599-1.488 3.43z"></path>
</symbol>
<symbol id="microwave" viewBox="0 0 40 32">
<path d="M2.855 1.742c-0.75 0-1.47 0.298-2 0.828s-0.828 1.25-0.828 2v22.859c0 0.75 0.298 1.47 0.828 2s1.25 0.828 2 0.828h34.289c0.75 0 1.47-0.298 2-0.828s0.828-1.25 0.828-2v-22.859c0-0.75-0.298-1.47-0.828-2s-1.25-0.828-2-0.828zM2.855 4.543h34.289c0.008 0 0.014 0.002 0.020 0.008s0.008 0.012 0.008 0.020v22.859c0 0.008-0.002 0.014-0.008 0.020s-0.012 0.008-0.020 0.008h-34.289c-0.008 0-0.014-0.002-0.020-0.008s-0.008-0.012-0.008-0.020v-22.859c0-0.008 0.002-0.014 0.008-0.020s0.011-0.008 0.020-0.008z"></path>
<path d="M8.57 7.457c-0.75 0-1.47 0.298-2 0.828s-0.828 1.25-0.828 2v11.43c0 0.75 0.298 1.47 0.828 2s1.25 0.828 2 0.828h15.715c0.75 0 1.47-0.298 2-0.828s0.828-1.251 0.828-2v-11.43c0-0.749-0.298-1.47-0.828-2s-1.25-0.828-2-0.828zM31.43 8.887c-0.001 0-0.002 0-0.002 0-0.773 0-1.399 0.626-1.4 1.398v0c0 0.001 0 0.002 0 0.002 0 0.773 0.627 1.4 1.4 1.4 0.001 0 0.002 0 0.002 0h1.426c0.001 0 0.002 0 0.002 0 0.773 0 1.4-0.627 1.4-1.4 0-0.001 0-0.002 0-0.002v0c-0.001-0.773-0.627-1.398-1.4-1.398-0.001 0-0.002 0-0.002 0h0zM8.57 10.258h15.715c0.008 0 0.014 0.002 0.020 0.008s0.008 0.011 0.008 0.020v11.43c0 0.008-0.002 0.014-0.008 0.020s-0.011 0.008-0.020 0.008h-15.715c-0.008 0-0.014-0.002-0.020-0.008s-0.008-0.012-0.008-0.020v-11.43c0-0.008 0.002-0.014 0.008-0.020s0.011-0.008 0.020-0.008zM31.43 14.602c-0.001 0-0.002 0-0.002 0-0.773 0-1.399 0.626-1.4 1.398v0c0.001 0.773 0.627 1.398 1.4 1.398 0.001 0 0.002 0 0.002 0h1.426c0.001 0 0.002 0 0.002 0 0.773 0 1.399-0.626 1.4-1.398v-0c-0.001-0.773-0.627-1.398-1.4-1.398-0.001 0-0.002 0-0.002 0h0z"></path>
</symbol>
<symbol id="MapPin" viewBox="0 0 29 32">
<path d="M14.4 0.134c-3.5 0-6.859 1.39-9.334 3.866s-3.866 5.834-3.866 9.334c0 5.181 3.227 9.717 6.328 12.991s6.206 5.341 6.206 5.341c0.187 0.126 0.418 0.201 0.666 0.201s0.479-0.075 0.67-0.204l-0.004 0.003c0 0 3.105-2.067 6.206-5.341s6.328-7.81 6.328-12.991c0-3.5-1.391-6.859-3.866-9.334s-5.834-3.866-9.334-3.866zM14.4 2.534c2.865 0 5.612 1.137 7.638 3.163s3.163 4.773 3.163 7.638c0 4.152-2.773 8.281-5.672 11.341-2.565 2.708-4.573 4.035-5.128 4.419-0.556-0.384-2.563-1.711-5.128-4.419-2.899-3.060-5.672-7.188-5.672-11.341 0-2.865 1.137-5.612 3.162-7.638s4.773-3.163 7.638-3.163z"></path>
<path d="M14.4 8.134c-2.858 0-5.2 2.342-5.2 5.2s2.342 5.2 5.2 5.2c2.858 0 5.2-2.342 5.2-5.2s-2.342-5.2-5.2-5.2zM14.4 10.534c1.561 0 2.8 1.239 2.8 2.8s-1.239 2.8-2.8 2.8c-1.561 0-2.8-1.239-2.8-2.8s1.239-2.8 2.8-2.8z"></path>
</symbol>
<symbol id="kitchen" viewBox="0 0 32 32">
<path d="M25.806 2.897c-0.139-0.061-0.302-0.097-0.472-0.097-0.321 0-0.613 0.126-0.828 0.332l0-0c-6.643 6.337-7.072 11.917-7.041 16.875 0.004 0.66 0.539 1.194 1.2 1.194h5.469v1.625c-0.036-0.009-0.082-0.018-0.128-0.024l-0.006-0.001c-0.663 0-1.2 0.537-1.2 1.2v0 4c0 0.663 0.537 1.2 1.2 1.2h1.334c0.663-0 1.2-0.537 1.2-1.2v0-24c-0-0.492-0.296-0.915-0.72-1.1l-0.008-0.003zM6.666 4.134c-0.663 0-1.2 0.537-1.2 1.2v0 4c0 1.379 0.55 2.7 1.525 3.675 0.657 0.657 1.592 0.796 2.475 1.028v13.962c0 0.663 0.537 1.2 1.2 1.2v0c0.663 0 1.2-0.537 1.2-1.2v0-13.963c0.884-0.232 1.821-0.371 2.478-1.028 0.975-0.975 1.522-2.296 1.522-3.675v-4c0-0.663-0.537-1.2-1.2-1.2v0c-0.663 0-1.2 0.537-1.2 1.2v0 4c0 0.743-0.293 1.453-0.819 1.978-0.207 0.207-0.526 0.193-0.781 0.325v-6.303c0-0.663-0.537-1.2-1.2-1.2v0c-0.663 0-1.2 0.537-1.2 1.2v0 6.3c-0.255-0.131-0.572-0.115-0.778-0.322-0.525-0.525-0.822-1.235-0.822-1.978v-4c0-0.663-0.537-1.2-1.2-1.2v0zM24.134 7.219v11.581h-4.134c0.029-3.716 0.559-7.301 4.134-11.581z"></path>
</symbol>
<symbol id="TV" viewBox="0 0 28 32">
<path d="M5.333 6.506c-2.879 0-5.227 2.348-5.227 5.227v10.667c0 2.879 2.348 5.227 5.227 5.227h17.067c2.879 0 5.227-2.348 5.227-5.227v-10.667c0-2.879-2.348-5.227-5.227-5.227zM5.333 8.427h17.067c1.849 0 3.306 1.458 3.306 3.306v10.667c0 1.849-1.458 3.306-3.306 3.306h-17.067c-1.849 0-3.306-1.458-3.306-3.306v-10.667c0-1.848 1.458-3.306 3.306-3.306z"></path>
<path d="M9.6 29.973c-0 0-0 0-0 0-0.53 0-0.96 0.43-0.96 0.96 0 0 0 0 0 0v-0c0 0 0 0 0 0 0 0.53 0.43 0.96 0.96 0.96 0 0 0 0 0 0h8.533c0 0 0 0 0 0 0.53 0 0.96-0.43 0.96-0.96 0-0 0-0 0-0v0c0-0 0-0 0-0 0-0.53-0.43-0.96-0.96-0.96-0 0-0 0-0 0h0z"></path>
<path d="M19.587 0.388l-6.4 6.4c-0.174 0.174-0.282 0.414-0.282 0.679s0.108 0.505 0.281 0.679v0c0.174 0.174 0.414 0.282 0.679 0.282s0.505-0.108 0.679-0.281v0l6.4-6.4c0.174-0.174 0.282-0.414 0.282-0.679s-0.108-0.505-0.282-0.679v0c-0.174-0.174-0.414-0.282-0.679-0.282s-0.505 0.108-0.679 0.281v0z"></path>
<path d="M6.787 0.388c-0.174 0.174-0.282 0.414-0.282 0.679s0.108 0.505 0.282 0.679v0l6.4 6.4c0.174 0.174 0.414 0.282 0.679 0.282s0.505-0.108 0.679-0.281v0c0.174-0.174 0.282-0.414 0.282-0.679s-0.108-0.505-0.281-0.679v0l-6.4-6.4c-0.174-0.174-0.414-0.282-0.679-0.282s-0.505 0.108-0.679 0.281v0z"></path>
</symbol>
<symbol id="airConditioner" viewBox="0 0 32 32">
<path d="M3.428-0.056c-0.924 0-1.812 0.365-2.466 1.019s-1.019 1.542-1.019 2.466v11.428c0 0.924 0.365 1.812 1.019 2.466s1.542 1.022 2.466 1.022h25.144c0.923 0 1.809-0.37 2.462-1.022 0.654-0.653 1.022-1.542 1.022-2.466v-11.428c0-0.924-0.368-1.812-1.022-2.466-0.653-0.652-1.539-1.019-2.462-1.019zM3.428 2.344h25.144c0.288 0 0.562 0.112 0.766 0.316 0.001 0.001 0.002 0.002 0.003 0.003l0 0c0.204 0.204 0.316 0.477 0.316 0.766v11.428c0 0.288-0.112 0.565-0.316 0.769-0 0-0.001 0-0.002 0s-0.001 0-0.002 0h0c-0.204 0.204-0.477 0.319-0.766 0.319h-25.144c-0.288 0-0.565-0.115-0.769-0.319s-0.316-0.48-0.316-0.769v-11.428c0-0.288 0.112-0.565 0.316-0.769s0.48-0.316 0.769-0.316z"></path>
<path d="M9.144 9.084c-0.924 0-1.812 0.368-2.466 1.022s-1.022 1.542-1.022 2.466v4.572c0 0.663 0.537 1.2 1.2 1.2v0c0.663 0 1.2-0.537 1.2-1.2v0-4.572c0-0.288 0.115-0.565 0.319-0.769s0.48-0.319 0.769-0.319h13.713c0.288 0 0.565 0.115 0.769 0.319s0.319 0.48 0.319 0.769v4.572c0 0.663 0.537 1.2 1.2 1.2v0c0.663 0 1.2-0.537 1.2-1.2v0-4.572c0-0.924-0.368-1.812-1.022-2.466s-1.542-1.022-2.466-1.022zM9.144 21.656c-0.663 0-1.2 0.537-1.2 1.2v0 2.516c0 0.531-0.212 1.037-0.588 1.413s-0.882 0.587-1.413 0.587h-0.228c-0.663 0-1.2 0.537-1.2 1.2v0c0 0.663 0.537 1.2 1.2 1.2v0h0.228c1.167 0 2.285-0.463 3.109-1.288 0-0 0-0.001 0-0.002s0-0.001 0-0.002v0c0.825-0.825 1.291-1.943 1.291-3.109v-2.516c0-0.663-0.537-1.2-1.2-1.2v0zM16 21.656c-0.663 0-1.2 0.537-1.2 1.2v0 8c0 0.663 0.537 1.2 1.2 1.2v0c0.663 0 1.2-0.537 1.2-1.2v0-8c0-0.663-0.537-1.2-1.2-1.2v0zM22.856 21.656c-0.663 0-1.2 0.537-1.2 1.2v0 2.516c0 1.166 0.466 2.285 1.291 3.109 0 0 0 0.001 0 0.002s0 0.001 0 0.002v-0c0.825 0.825 1.943 1.288 3.109 1.288h0.228c0.663 0 1.2-0.537 1.2-1.2v0c0-0.663-0.537-1.2-1.2-1.2v0h-0.228c-0.531 0-1.037-0.212-1.413-0.587s-0.587-0.882-0.587-1.413v-2.516c0-0.663-0.537-1.2-1.2-1.2v0z"></path>
</symbol>
<symbol id="beds" viewBox="0 0 32 32">
<path d="M8.497 4.881c-0.958 0.003-1.876 0.385-2.553 1.063s-1.060 1.595-1.063 2.553c0 0 0 0.001 0 0.002s0 0.001 0 0.002v-0 6.262c-0.494 0.245-1.1 0.225-1.497 0.622-0.958 0.958-1.499 2.257-1.503 3.613 0 0 0 0.001 0 0.002s0 0.001 0 0.002v-0 7c0.001 0.618 0.501 1.118 1.119 1.119h0c0.618-0.001 1.118-0.501 1.119-1.119v-7c0.003-0.763 0.307-1.495 0.847-2.034s1.271-0.844 2.034-0.847h18c0.763 0.003 1.495 0.307 2.034 0.847s0.844 1.271 0.847 2.034v7c0.001 0.618 0.501 1.118 1.119 1.119h0c0.618-0.001 1.118-0.501 1.119-1.119v-7c0-0 0-0.001 0-0.002s0-0.001 0-0.002v0c-0.004-1.355-0.545-2.654-1.503-3.612-0.397-0.397-1.003-0.377-1.497-0.622v-6.263c0-0 0-0.001 0-0.002s0-0.001 0-0.002v0c-0.003-0.958-0.385-1.876-1.063-2.553s-1.595-1.060-2.553-1.063c-0 0-0.001 0-0.002 0s-0.001 0-0.002 0h-15c-0 0-0.001 0-0.002 0s-0.001 0-0.002 0h0zM8.5 7.119h15c0.366 0.002 0.716 0.147 0.975 0.406s0.404 0.609 0.406 0.975v5.381h-17.762v-5.381c0.002-0.366 0.147-0.716 0.406-0.975s0.609-0.404 0.975-0.406z"></path>
<path d="M8.997 10.881c-0.825 0.002-1.616 0.332-2.2 0.916s-0.913 1.374-0.916 2.2c0 0 0 0.001 0 0.002s0 0.001 0 0.002v-0 1c0.001 0.618 0.501 1.118 1.119 1.119h0c0.618-0.001 1.118-0.501 1.119-1.119v-1c0.001-0.233 0.094-0.457 0.259-0.622s0.389-0.258 0.622-0.259h5c0.233 0.001 0.457 0.094 0.622 0.259s0.258 0.389 0.259 0.622v1c0.001 0.618 0.501 1.118 1.119 1.119h0c0.618-0.001 1.118-0.501 1.119-1.119v-0.997c0-0.001 0-0.002 0-0.003 0.001-0.233 0.094-0.457 0.259-0.622s0.389-0.258 0.622-0.259h5c0.233 0.001 0.457 0.094 0.622 0.259s0.259 0.391 0.259 0.625v0.997c0.001 0.618 0.501 1.118 1.119 1.119h0c0.618-0.001 1.118-0.501 1.119-1.119v-1c0-0 0-0.001 0-0.002s0-0.001 0-0.002v0c-0.002-0.826-0.332-1.616-0.916-2.2s-1.375-0.913-2.2-0.916c-0 0-0.001 0-0.002 0s-0.001 0-0.002 0h-5c-0 0-0.001 0-0.002 0s-0.001 0-0.002 0h0c-0.749 0.002-1.433 0.345-1.997 0.831-0.563-0.487-1.248-0.829-1.997-0.831-0 0-0.001 0-0.002 0s-0.001 0-0.002 0h-5c-0 0-0.001 0-0.002 0s-0.001 0-0.002 0h0zM4.497 22.881c-0.693 0.002-1.357 0.279-1.847 0.769s-0.767 1.154-0.769 1.847c0 0 0 0.001 0 0.002s0 0.001 0 0.002v-0 0.5c0.001 0.618 0.501 1.118 1.119 1.119h0c0.618-0.001 1.118-0.501 1.119-1.119v-0.5c0.001-0.101 0.041-0.198 0.112-0.269s0.168-0.111 0.269-0.113h23c0.101 0.001 0.195 0.041 0.266 0.113 0.001 0.001 0.002 0.002 0.003 0.003l0 0c0.071 0.071 0.111 0.165 0.113 0.266v0.5c0.001 0.618 0.501 1.118 1.119 1.119h0c0.618-0.001 1.118-0.501 1.119-1.119v-0.5c0-0 0-0.001 0-0.002s0-0.001 0-0.002v0c-0.002-0.693-0.278-1.357-0.769-1.847s-1.154-0.767-1.847-0.769c-0 0-0.001 0-0.002 0s-0.001 0-0.002 0h-23c-0 0-0.001 0-0.002 0s-0.001 0-0.002 0h0z"></path>
</symbol>
</defs>
</svg>
